<?xml version="1.0" encoding="UTF-8"?>
<svg version="1.1" xmlns="http://www.w3.org/2000/svg" width="100" height="100">
<path d="M0 0 C0.72445312 0.00451172 1.44890625 0.00902344 2.1953125 0.01367188 C4.13023645 0.02616677 6.06512365 0.04405309 8 0.0625 C11.15592708 0.0625 14.3057423 -0.00931605 17.4609375 -0.078125 C19.42120528 -0.10584596 21.38147717 -0.13345935 23.34179688 -0.15722656 C24.69381154 -0.17735742 26.04573898 -0.20466522 27.39746094 -0.23925781 C29.35573728 -0.28799968 31.31465418 -0.3083792 33.2734375 -0.328125 C34.44310059 -0.34907227 35.61276367 -0.37001953 36.81787109 -0.39160156 C41.27772437 0.24483599 43.69410499 2.34109295 46.375 5.875 C47.39405471 9.44169148 47.08816077 11.49575082 46 15.0625 C43.05883579 19.10960606 39.92016395 21.73616185 34.91723633 22.58642578 C33.85786865 22.6429834 32.79850098 22.69954102 31.70703125 22.7578125 C30.63557861 22.82242676 29.56412598 22.88704102 28.46020508 22.95361328 C27.24240356 23.00751221 27.24240356 23.00751221 26 23.0625 C26.02618408 23.9095752 26.05236816 24.75665039 26.0793457 25.62939453 C26.16492505 28.79388062 26.22742097 31.95777406 26.2746582 35.12304688 C26.2996928 36.48880503 26.33373218 37.85443067 26.37719727 39.21972656 C26.77480859 52.03684454 26.77480859 52.03684454 23.59375 55.90625 C19.22205195 59.5405532 16.54068374 60.42417277 10.89453125 60.24609375 C8.43404407 60.00765479 6.96363426 59.58977109 5 58.0625 C2.16078787 54.15852873 1.63893995 51.45705675 1.70703125 46.66796875 C1.71669922 45.46591797 1.72636719 44.26386719 1.73632812 43.02539062 C1.76146484 41.77951172 1.78660156 40.53363281 1.8125 39.25 C1.82603516 37.98478516 1.83957031 36.71957031 1.85351562 35.41601562 C1.88881682 32.29774357 1.93813181 29.18033958 2 26.0625 C2.99 25.7325 3.98 25.4025 5 25.0625 C5 24.4025 5 23.7425 5 23.0625 C3.35451172 23.02382813 3.35451172 23.02382813 1.67578125 22.984375 C0.22131552 22.9280731 -1.23311003 22.87072623 -2.6875 22.8125 C-3.40873047 22.79832031 -4.12996094 22.78414062 -4.87304688 22.76953125 C-9.79685044 22.54470004 -12.38340567 21.67909433 -16 18.0625 C-18.00454289 15.42014801 -18 14.06104977 -18 10.6875 C-16.75904739 6.18904678 -14.71416842 3.81578902 -11 1.0625 C-7.29030495 -0.17406502 -3.85914115 -0.04463419 0 0 Z M5 3.0625 C6 5.0625 6 5.0625 6 5.0625 Z M1 7.0625 C-1.26171875 7.4765625 -1.26171875 7.4765625 -3.6875 7.6875 C-4.49574219 7.76226562 -5.30398437 7.83703125 -6.13671875 7.9140625 C-6.75160156 7.96304687 -7.36648437 8.01203125 -8 8.0625 C-8.33 9.0525 -8.66 10.0425 -9 11.0625 C-7.31352308 13.14134094 -6.43226087 13.98854829 -3.75097656 14.44726562 C-2.88956055 14.45435547 -2.02814453 14.46144531 -1.140625 14.46875 C0.28636719 14.50162109 0.28636719 14.50162109 1.7421875 14.53515625 C2.73476563 14.54417969 3.72734375 14.55320312 4.75 14.5625 C17.02545895 14.67586176 17.02545895 14.67586176 23 18.0625 C23.66 19.0525 24.32 20.0425 25 21.0625 C25.103125 20.44375 25.20625 19.825 25.3125 19.1875 C26 17.0625 26 17.0625 29 15.0625 C31.04296875 14.6484375 31.04296875 14.6484375 33.1875 14.4375 C34.445625 14.31375 35.70375 14.19 37 14.0625 C37.33 12.7425 37.66 11.4225 38 10.0625 C34.60102327 7.79651552 33.43680827 7.82507346 29.45703125 7.8671875 C28.38388672 7.87363281 27.31074219 7.88007813 26.20507812 7.88671875 C25.08552734 7.90347656 23.96597656 7.92023437 22.8125 7.9375 C21.68134766 7.94652344 20.55019531 7.95554687 19.38476562 7.96484375 C16.58963172 7.98843138 13.79492155 8.021347 11 8.0625 C11 9.0525 11 10.0425 11 11.0625 C8.69 11.0625 6.38 11.0625 4 11.0625 C4.33 9.0825 4.66 7.1025 5 5.0625 C3.53774984 4.97004997 3.53774984 4.97004997 1 7.0625 Z M11 22.0625 C10.95060338 26.01346978 10.91428245 29.9643203 10.89013672 33.91552734 C10.87511893 35.9216136 10.84971019 37.92761324 10.82421875 39.93359375 C10.81777344 41.19042969 10.81132813 42.44726562 10.8046875 43.7421875 C10.79421387 44.90476074 10.78374023 46.06733398 10.77294922 47.26513672 C10.70738003 50.20160279 10.70738003 50.20160279 13 52.0625 C14.32 52.0625 15.64 52.0625 17 52.0625 C18.20621589 49.65006823 18.12921389 48.10633395 18.1328125 45.4140625 C18.13410156 44.49109375 18.13539062 43.568125 18.13671875 42.6171875 C18.13285156 41.65039062 18.12898438 40.68359375 18.125 39.6875 C18.13080078 38.24890625 18.13080078 38.24890625 18.13671875 36.78125 C18.13478516 35.39292969 18.13478516 35.39292969 18.1328125 33.9765625 C18.13168457 33.1304541 18.13055664 32.2843457 18.12939453 31.41259766 C18.00837545 28.13193985 18.00837545 28.13193985 17 25.0625 C14.01647106 23.27870585 14.01647106 23.27870585 11 22.0625 Z " fill="#466FB0" transform="translate(36,5.9375)"/>
<path d="M0 0 C1.02802734 -0.01224609 2.05605469 -0.02449219 3.11523438 -0.03710938 C4.58766602 -0.04000977 4.58766602 -0.04000977 6.08984375 -0.04296875 C6.99468506 -0.04707764 7.89952637 -0.05118652 8.83178711 -0.05541992 C11.0625 0.1875 11.0625 0.1875 13.0625 2.1875 C13.3925 1.8575 13.7225 1.5275 14.0625 1.1875 C16.3125 0.625 16.3125 0.625 19.0625 1.1875 C22.92417406 5.52225664 24.78550767 10.61516984 26.0625 16.1875 C27.7125 16.1875 29.3625 16.1875 31.0625 16.1875 C30.54558594 15.45144531 30.02867188 14.71539062 29.49609375 13.95703125 C28.83738281 12.98121094 28.17867187 12.00539063 27.5 11 C26.83871094 10.03707031 26.17742188 9.07414062 25.49609375 8.08203125 C23.88163149 4.82231317 23.93011123 3.57229047 25.0625 0.1875 C27.68777189 0.13367894 30.31194713 0.09391687 32.9375 0.0625 C33.68386719 0.04574219 34.43023437 0.02898437 35.19921875 0.01171875 C37.15444461 -0.0058959 39.10992021 0.08429811 41.0625 0.1875 C41.7225 0.8475 42.3825 1.5075 43.0625 2.1875 C42.6875 4.3125 42.6875 4.3125 42.0625 6.1875 C39.4225 6.5175 36.7825 6.8475 34.0625 7.1875 C34.59101562 8.00734375 35.11953125 8.8271875 35.6640625 9.671875 C36.33179688 10.74953125 36.99953125 11.8271875 37.6875 12.9375 C38.36039063 14.00484375 39.03328125 15.0721875 39.7265625 16.171875 C41.0625 19.1875 41.0625 19.1875 40.2734375 21.578125 C39.87382813 22.10921875 39.47421875 22.6403125 39.0625 23.1875 C36.60409395 23.21441685 34.14598118 23.23429802 31.6875 23.25 C30.98882812 23.25837891 30.29015625 23.26675781 29.5703125 23.27539062 C24.2890625 23.30078125 24.2890625 23.30078125 22.0625 22.1875 C21.60875 21.424375 21.155 20.66125 20.6875 19.875 C19.07220739 17.20355453 17.33728681 15.30540496 15.0625 13.1875 C14.815 13.909375 14.5675 14.63125 14.3125 15.375 C12.95266326 18.43463266 11.23332246 20.6548738 9.0625 23.1875 C7.7425 22.8575 6.4225 22.5275 5.0625 22.1875 C4.37890625 20.546875 4.37890625 20.546875 4.0625 18.1875 C5.27734375 15.390625 5.27734375 15.390625 7 12.4375 C7.56589844 11.45265625 8.13179687 10.4678125 8.71484375 9.453125 C9.15957031 8.70546875 9.60429688 7.9578125 10.0625 7.1875 C7.7525 6.8575 5.4425 6.5275 3.0625 6.1875 C3.0625 11.4675 3.0625 16.7475 3.0625 22.1875 C1.4125 22.5175 -0.2375 22.8475 -1.9375 23.1875 C-3.9375 21.1875 -3.9375 21.1875 -4.1328125 17.7109375 C-4.11951493 16.32799032 -4.09566232 14.94511346 -4.0625 13.5625 C-4.05347656 12.85609375 -4.04445313 12.1496875 -4.03515625 11.421875 C-4.01157603 9.67693902 -3.97570461 7.93217705 -3.9375 6.1875 C-6.2475 6.1875 -8.5575 6.1875 -10.9375 6.1875 C-11.31968767 4.53135343 -11.65145102 2.86292976 -11.9375 1.1875 C-9.51933834 -1.23066166 -3.24972181 0.00202981 0 0 Z " fill="#26469C" transform="translate(35.9375,71.8125)"/>
<path d="M0 0 C2.02844287 -0.01718404 4.05524251 -0.06106773 6.08325195 -0.10522461 C7.36651367 -0.11360352 8.64977539 -0.12198242 9.97192383 -0.13061523 C11.73596558 -0.15248901 11.73596558 -0.15248901 13.53564453 -0.17480469 C17.99924479 0.48115611 20.42252449 2.56687399 23.10864258 6.10766602 C24.06851575 9.46722213 23.57389176 11.9341693 22.73364258 15.29516602 C20.46831011 18.16458714 19.21641421 19.13424214 15.73364258 20.29516602 C13.67219151 20.36415702 11.60862857 20.37984328 9.54614258 20.35766602 C7.91612305 20.34413086 7.91612305 20.34413086 6.25317383 20.33032227 C5.42172852 20.3187207 4.5902832 20.30711914 3.73364258 20.29516602 C4.60864258 15.42016602 4.60864258 15.42016602 5.73364258 14.29516602 C8.38827379 13.84056744 11.05553396 13.59273364 13.73364258 13.29516602 C13.73364258 12.30516602 13.73364258 11.31516602 13.73364258 10.29516602 C11.16152936 9.00910941 9.16457292 9.08472661 6.28833008 8.97875977 C5.21196289 8.93686523 4.1355957 8.8949707 3.02661133 8.85180664 C1.3347168 8.79283203 1.3347168 8.79283203 -0.39135742 8.73266602 C-1.52702148 8.68948242 -2.66268555 8.64629883 -3.83276367 8.60180664 C-6.6438351 8.49550562 -9.45499687 8.39347197 -12.26635742 8.29516602 C-12.26635742 9.28516602 -12.26635742 10.27516602 -12.26635742 11.29516602 C-14.57635742 11.29516602 -16.88635742 11.29516602 -19.26635742 11.29516602 C-18.94276815 7.735684 -18.65625803 5.76053125 -16.32885742 2.98266602 C-11.51832226 -0.95322639 -5.98085414 0.03531291 0 0 Z " fill="#426FB5" transform="translate(59.266357421875,5.704833984375)"/>
<path d="M0 0 C0.74958984 0.00451172 1.49917969 0.00902344 2.27148438 0.01367188 C4.11852383 0.02543646 5.96552213 0.04337135 7.8125 0.0625 C4.1875 5.8125 4.1875 5.8125 0.8125 8.0625 C-1.44921875 8.4765625 -1.44921875 8.4765625 -3.875 8.6875 C-4.68324219 8.76226562 -5.49148437 8.83703125 -6.32421875 8.9140625 C-7.24654297 8.98753906 -7.24654297 8.98753906 -8.1875 9.0625 C-8.1875 10.3825 -8.1875 11.7025 -8.1875 13.0625 C-0.9275 13.3925 6.3325 13.7225 13.8125 14.0625 C9.8125 19.0625 9.8125 19.0625 7.5625 19.875 C6.985 19.936875 6.4075 19.99875 5.8125 20.0625 C5.8125 20.7225 5.8125 21.3825 5.8125 22.0625 C3.0822611 22.1708667 0.35635457 22.24996694 -2.375 22.3125 C-3.14392578 22.34601562 -3.91285156 22.37953125 -4.70507812 22.4140625 C-8.73090843 22.48317547 -10.67466689 22.39155102 -14.15234375 20.16015625 C-17.35169274 16.8625547 -18.1875 15.35551831 -18.1875 10.6875 C-16.94654739 6.18904678 -14.90166842 3.81578902 -11.1875 1.0625 C-7.42449626 -0.19183458 -3.91539091 -0.04445422 0 0 Z " fill="#262B68" transform="translate(36.1875,5.9375)"/>
<path d="M0 0 C1.02802734 -0.01224609 2.05605469 -0.02449219 3.11523438 -0.03710938 C4.58766602 -0.04000977 4.58766602 -0.04000977 6.08984375 -0.04296875 C6.99468506 -0.04707764 7.89952637 -0.05118652 8.83178711 -0.05541992 C11.0625 0.1875 11.0625 0.1875 13.0625 2.1875 C13.3925 1.8575 13.7225 1.5275 14.0625 1.1875 C15.72867115 1.14686168 17.39638095 1.144779 19.0625 1.1875 C19.7225 2.8375 20.3825 4.4875 21.0625 6.1875 C20.21945313 7.09113281 19.37640625 7.99476562 18.5078125 8.92578125 C17.40093161 10.11708526 16.29416684 11.30849715 15.1875 12.5 C14.63191406 13.09490234 14.07632813 13.68980469 13.50390625 14.30273438 C12.96894531 14.87958984 12.43398438 15.45644531 11.8828125 16.05078125 C11.14442139 16.84415894 11.14442139 16.84415894 10.39111328 17.65356445 C8.85668204 19.36031235 8.85668204 19.36031235 7.0625 22.1875 C6.0725 21.8575 5.0825 21.5275 4.0625 21.1875 C4.64357632 17.4272015 5.71449496 14.65714968 7.625 11.375 C8.08003906 10.58480469 8.53507812 9.79460937 9.00390625 8.98046875 C9.35324219 8.38878906 9.70257813 7.79710938 10.0625 7.1875 C7.7525 6.8575 5.4425 6.5275 3.0625 6.1875 C3.0625 11.4675 3.0625 16.7475 3.0625 22.1875 C1.4125 22.5175 -0.2375 22.8475 -1.9375 23.1875 C-3.9375 21.1875 -3.9375 21.1875 -4.1328125 17.7109375 C-4.11951493 16.32799032 -4.09566232 14.94511346 -4.0625 13.5625 C-4.05347656 12.85609375 -4.04445313 12.1496875 -4.03515625 11.421875 C-4.01157603 9.67693902 -3.97570461 7.93217705 -3.9375 6.1875 C-6.2475 6.1875 -8.5575 6.1875 -10.9375 6.1875 C-11.31968767 4.53135343 -11.65145102 2.86292976 -11.9375 1.1875 C-9.51933834 -1.23066166 -3.24972181 0.00202981 0 0 Z " fill="#284398" transform="translate(35.9375,71.8125)"/>
<path d="M0 0 C1.85376666 2.72612745 1.99513447 4.13623489 1.875 7.5 C0.92256805 11.30972781 0.07793835 12.64628244 -3 15 C-6.28519475 16.09506492 -8.73663415 16.09960608 -12.1875 16.0625 C-13.81751953 16.04896484 -13.81751953 16.04896484 -15.48046875 16.03515625 C-16.31191406 16.02355469 -17.14335938 16.01195313 -18 16 C-17.125 11.125 -17.125 11.125 -16 10 C-14.15108054 9.76636119 -12.29511969 9.58696365 -10.4375 9.4375 C-9.42558594 9.35371094 -8.41367188 9.26992188 -7.37109375 9.18359375 C-6.58863281 9.12300781 -5.80617188 9.06242187 -5 9 C-5.061875 7.88625 -5.12375 6.7725 -5.1875 5.625 C-5.125625 4.42875 -5.06375 3.2325 -5 2 C-2 0 -2 0 0 0 Z " fill="#282868" transform="translate(81,10)"/>
<path d="M0 0 C2.62527189 -0.05382106 5.24944713 -0.09358313 7.875 -0.125 C8.62136719 -0.14175781 9.36773437 -0.15851563 10.13671875 -0.17578125 C12.09194461 -0.1933959 14.04742021 -0.10320189 16 0 C16.66 0.66 17.32 1.32 18 2 C17.625 4.125 17.625 4.125 17 6 C15.081875 6.12375 15.081875 6.12375 13.125 6.25 C10.94491471 6.4684769 10.94491471 6.4684769 9 7 C7.45599341 8.83572704 7.45599341 8.83572704 7 11 C6.67 11.66 6.34 12.32 6 13 C5.34 13 4.68 13 4 13 C2.67578125 11.42578125 2.67578125 11.42578125 1.3125 9.3125 C0.85488281 8.62800781 0.39726563 7.94351563 -0.07421875 7.23828125 C-1.23376569 4.43481966 -0.82841057 2.86680264 0 0 Z " fill="#26286B" transform="translate(61,72)"/>
<path d="M0 0 C0.72703125 0.14824219 1.4540625 0.29648438 2.203125 0.44921875 C2.863125 2.09921875 3.523125 3.74921875 4.203125 5.44921875 C3.36007813 6.35285156 2.51703125 7.25648437 1.6484375 8.1875 C0.54155661 9.37880401 -0.56520816 10.5702159 -1.671875 11.76171875 C-2.22746094 12.35662109 -2.78304687 12.95152344 -3.35546875 13.56445312 C-3.89042969 14.14130859 -4.42539062 14.71816406 -4.9765625 15.3125 C-5.46882324 15.84141846 -5.96108398 16.37033691 -6.46826172 16.9152832 C-8.00269296 18.6220311 -8.00269296 18.6220311 -9.796875 21.44921875 C-10.786875 21.11921875 -11.776875 20.78921875 -12.796875 20.44921875 C-12.22207084 15.51548302 -10.02857235 11.83311637 -7.546875 7.63671875 C-6.97259766 6.59741211 -6.97259766 6.59741211 -6.38671875 5.53710938 C-3.45102503 0.55428475 -3.45102503 0.55428475 0 0 Z " fill="#262668" transform="translate(52.796875,72.55078125)"/>
<path d="M0 0 C0.74886475 0.00523682 1.49772949 0.01047363 2.26928711 0.01586914 C3.07817383 0.0190918 3.88706055 0.02231445 4.72045898 0.02563477 C5.5705957 0.03401367 6.42073242 0.04239258 7.29663086 0.05102539 C8.15063477 0.05553711 9.00463867 0.06004883 9.88452148 0.06469727 C12.00108749 0.07652166 14.11761771 0.0944577 16.23413086 0.11352539 C15.60450439 0.81227783 15.60450439 0.81227783 14.9621582 1.52514648 C11.41581385 5.48622685 8.72470588 9.4197494 6.23413086 14.11352539 C5.90413086 14.11352539 5.57413086 14.11352539 5.23413086 14.11352539 C5.23413086 11.47352539 5.23413086 8.83352539 5.23413086 6.11352539 C2.92413086 6.11352539 0.61413086 6.11352539 -1.76586914 6.11352539 C-2.14805681 4.45737882 -2.47982016 2.78895515 -2.76586914 1.11352539 C-1.76586914 0.11352539 -1.76586914 0.11352539 0 0 Z " fill="#26286D" transform="translate(26.765869140625,71.886474609375)"/>
<path d="M0 0 C3.60883499 1.202945 3.9821893 2.08967626 5.8125 5.3125 C6.27269531 6.09238281 6.73289062 6.87226562 7.20703125 7.67578125 C7.46871094 8.44277344 7.73039062 9.20976563 8 10 C7.34 11.32 6.68 12.64 6 14 C2.7 14 -0.6 14 -4 14 C-3.34 12.68 -2.68 11.36 -2 10 C-2.185625 9.01 -2.37125 8.02 -2.5625 7 C-3 4 -3 4 -1.5625 1.625 C-0.7890625 0.820625 -0.7890625 0.820625 0 0 Z " fill="#3F6DB5" transform="translate(69,81)"/>
<path d="M0 0 C1.16245685 2.3249137 1.098432 3.85452795 1.1875 6.4375 C1.58842166 10.24735111 1.58842166 10.24735111 4.25 13 C9.77630995 14.47368265 15.30101903 14.75479162 21 15 C21 15.66 21 16.32 21 17 C18.2697611 17.1083667 15.54385457 17.18746694 12.8125 17.25 C12.04357422 17.28351562 11.27464844 17.31703125 10.48242188 17.3515625 C6.45659157 17.42067547 4.51283311 17.32905102 1.03515625 15.09765625 C-2.21492421 11.74776525 -2.21492421 11.74776525 -3 9 C-2.55555556 2.55555556 -2.55555556 2.55555556 0 0 Z " fill="#306566" transform="translate(21,11)"/>
<path d="M0 0 C0.33 0 0.66 0 1 0 C1.00386719 1.66289063 1.00386719 1.66289063 1.0078125 3.359375 C1.04534024 4.82295682 1.08448783 6.28649774 1.125 7.75 C1.12242188 8.47960938 1.11984375 9.20921875 1.1171875 9.9609375 C1.14680297 12.42021598 1.14680297 12.42021598 2 16 C4.94693291 18.3542811 4.94693291 18.3542811 8 20 C8 20.99 8 21.98 8 23 C3.68433833 22.52048204 1.7980059 21.29764982 -1 18 C-2.34832104 15.30335792 -2.16910682 13.13412479 -2.1875 10.125 C-2.20167969 9.07570313 -2.21585938 8.02640625 -2.23046875 6.9453125 C-2.00504937 4.06452929 -1.48964317 2.43759792 0 0 Z " fill="#E9ECED" transform="translate(40,43)"/>
<path d="M0 0 C3.93736123 -0.08696177 7.87447628 -0.14037835 11.8125 -0.1875 C13.49182617 -0.22520508 13.49182617 -0.22520508 15.20507812 -0.26367188 C16.27822266 -0.27333984 17.35136719 -0.28300781 18.45703125 -0.29296875 C19.9416687 -0.31653442 19.9416687 -0.31653442 21.45629883 -0.34057617 C24 0 24 0 25.8659668 1.3815918 C27 3 27 3 26.6875 5.1875 C26.3471875 6.0846875 26.3471875 6.0846875 26 7 C25.34 7 24.68 7 24 7 C23.67 6.01 23.34 5.02 23 4 C20.59458071 2.79729036 18.89633409 2.79683337 16.2109375 2.68359375 C15.26992187 2.64169922 14.32890625 2.59980469 13.359375 2.55664062 C12.37453125 2.51732422 11.3896875 2.47800781 10.375 2.4375 C9.38242187 2.39431641 8.38984375 2.35113281 7.3671875 2.30664062 C4.91160162 2.20038931 2.45591297 2.09835036 0 2 C0 1.34 0 0.68 0 0 Z " fill="#959599" transform="translate(50,12)"/>
<path d="M0 0 C2.75 0.9375 2.75 0.9375 4.75 3.9375 C2.23177725 6.36222438 1.07466794 6.93004989 -2.484375 7.01171875 C-3.64453125 6.88410156 -4.8046875 6.75648437 -6 6.625 C-7.75570312 6.44517578 -7.75570312 6.44517578 -9.546875 6.26171875 C-10.43890625 6.15472656 -11.3309375 6.04773438 -12.25 5.9375 C-11.26 5.2775 -10.27 4.6175 -9.25 3.9375 C-7.8578125 2.8546875 -7.8578125 2.8546875 -6.4375 1.75 C-3.25 -0.0625 -3.25 -0.0625 0 0 Z " fill="#385AA4" transform="translate(75.25,6.0625)"/>
<path d="M0 0 C0.66 0.33 1.32 0.66 2 1 C0.3867348 4.87733625 -2.14949362 7.51726426 -5 10.5625 C-7.57444258 13.32029678 -9.90636463 15.85954694 -12 19 C-12.66 19 -13.32 19 -14 19 C-13.67 17.35 -13.34 15.7 -13 14 C-12.01 13.67 -11.02 13.34 -10 13 C-9.30546568 11.68096843 -8.64400744 10.34442428 -8 9 C-6.66595884 7.3820063 -5.28788761 5.79961867 -3.875 4.25 C-3.15054688 3.45078125 -2.42609375 2.6515625 -1.6796875 1.828125 C-0.84824219 0.92320313 -0.84824219 0.92320313 0 0 Z " fill="#293382" transform="translate(55,75)"/>
<path d="M0 0 C3.25162799 0.29560254 5.56538113 0.73694121 8.375 2.4375 C10.87797034 6.38449169 10.62767213 10.44572781 10 15 C9.34 16.32 8.68 17.64 8 19 C7.67 14.38 7.34 9.76 7 5 C4.525 4.01 4.525 4.01 2 3 C1.34 2.67 0.68 2.34 0 2 C0 1.34 0 0.68 0 0 Z " fill="#A5A5A8" transform="translate(46,26)"/>
<path d="M0 0 C2.97 0 5.94 0 9 0 C7.125 4.875 7.125 4.875 6 6 C3.66055264 5.71269945 1.3260857 5.38063221 -1 5 C-0.67 3.35 -0.34 1.7 0 0 Z " fill="#2D4898" transform="translate(59,89)"/>
<path d="M0 0 C2.97 0 5.94 0 9 0 C5.25 4.875 5.25 4.875 3 6 C0.6670134 6.04022391 -1.66706666 6.04320247 -4 6 C-3.34 4.68 -2.68 3.36 -2 2 C-1.34 2 -0.68 2 0 2 C0 1.34 0 0.68 0 0 Z " fill="#293882" transform="translate(41,20)"/>
<path d="M0 0 C1.74627478 2.61941217 2.38722388 4.03824877 3 7 C2.01 7.33 1.02 7.66 0 8 C-0.66 8.66 -1.32 9.32 -2 10 C-2.99 8.68 -3.98 7.36 -5 6 C-3.35 4.02 -1.7 2.04 0 0 Z " fill="#3F6CB5" transform="translate(59,81)"/>
<path d="M0 0 C-4.75 5.875 -4.75 5.875 -7 7 C-7.66 7.99 -8.32 8.98 -9 10 C-9 7.69 -9 5.38 -9 3 C-8.01 2.67 -7.02 2.34 -6 2 C-6 1.34 -6 0.68 -6 0 C-3.50907189 -1.24546405 -2.58919267 -0.7767578 0 0 Z " fill="#355D8D" transform="translate(47,29)"/>
<path d="M0 0 C0.33 1.32 0.66 2.64 1 4 C5.62 3.67 10.24 3.34 15 3 C12 6 12 6 8.86328125 6.29296875 C7.69152344 6.25816406 6.51976563 6.22335938 5.3125 6.1875 C3.54326172 6.14689453 3.54326172 6.14689453 1.73828125 6.10546875 C0.38283203 6.05326172 0.38283203 6.05326172 -1 6 C-1.042721 4.33388095 -1.04063832 2.66617115 -1 1 C-0.67 0.67 -0.34 0.34 0 0 Z " fill="#77777A" transform="translate(62,22)"/>
<path d="M0 0 C2.0625 0.4375 2.0625 0.4375 4 1 C4.5625 2.9375 4.5625 2.9375 5 5 C4 6 4 6 0.9375 6.0625 C-0.5165625 6.0315625 -0.5165625 6.0315625 -2 6 C-1.125 1.125 -1.125 1.125 0 0 Z " fill="#2E4FA1" transform="translate(74,72)"/>
<path d="M0 0 C0.33 0 0.66 0 1 0 C1 2.64 1 5.28 1 8 C-0.65 8.33 -2.3 8.66 -4 9 C-4.66 8.01 -5.32 7.02 -6 6 C-4 4 -2 2 0 0 Z " fill="#3E6CB4" transform="translate(38,86)"/>
<path d="M0 0 C1.32 0.66 2.64 1.32 4 2 C2.20963542 2.9765625 0.41927083 3.953125 -1.37109375 4.9296875 C-3.16618315 5.91410024 -3.16618315 5.91410024 -4 8 C-5.32 8 -6.64 8 -8 8 C-8 7.34 -8 6.68 -8 6 C-6.02678947 4.6273318 -4.02456848 3.29572383 -2 2 C-1.34 1.34 -0.68 0.68 0 0 Z " fill="#4B6CA3" transform="translate(50,20)"/>
<path d="M0 0 C0.75 1.6875 0.75 1.6875 1 4 C-1.13381449 7.2769294 -2.25018012 8.75006004 -6 10 C-6 8.68 -6 7.36 -6 6 C-3.5625 3.875 -3.5625 3.875 -1 2 C-0.67 1.34 -0.34 0.68 0 0 Z " fill="#345BA9" transform="translate(38,82)"/>
<path d="M0 0 C0.99 0.33 1.98 0.66 3 1 C3 1.99 3 2.98 3 4 C2.34 4 1.68 4 1 4 C0.67 4.99 0.34 5.98 0 7 C-0.99 6.67 -1.98 6.34 -3 6 C-1.125 1.125 -1.125 1.125 0 0 Z " fill="#2E51A3" transform="translate(69,81)"/>
<path d="M0 0 C3.465 1.98 3.465 1.98 7 4 C7 4.99 7 5.98 7 7 C2.25 6.125 2.25 6.125 0 5 C0 3.35 0 1.7 0 0 Z " fill="#B0B1B4" transform="translate(41,59)"/>
<path d="M0 0 C-0.54226981 3.79588866 -2.20127563 5.47211993 -5 8 C-5.66 7.01 -6.32 6.02 -7 5 C-2.25 0 -2.25 0 0 0 Z " fill="#3358A8" transform="translate(59,79)"/>
<path d="M0 0 C0.33 0 0.66 0 1 0 C1.36923077 7.38461538 1.36923077 7.38461538 -0.5 10.5 C-0.995 10.995 -1.49 11.49 -2 12 C-2.28571429 3.42857143 -2.28571429 3.42857143 0 0 Z " fill="#709497" transform="translate(40,35)"/>
<path d="M0 0 C-1.5625 2.0625 -1.5625 2.0625 -4 4 C-7.75 3.75 -7.75 3.75 -11 3 C-9.66666667 2.33333333 -8.33333333 1.66666667 -7 1 C-6.319375 0.608125 -5.63875 0.21625 -4.9375 -0.1875 C-3 -1 -3 -1 0 0 Z " fill="#2C408E" transform="translate(80,9)"/>
<path d="M0 0 C0.33 0 0.66 0 1 0 C1.36923077 7.50769231 1.36923077 7.50769231 -0.5 10 C-0.995 10.33 -1.49 10.66 -2 11 C-2.28571429 3.57142857 -2.28571429 3.57142857 0 0 Z " fill="#B3C6C9" transform="translate(40,43)"/>
<path d="M0 0 C1.32 0.33 2.64 0.66 4 1 C1.03 3.475 1.03 3.475 -2 6 C-2.66 5.67 -3.32 5.34 -4 5 C-2.68 3.35 -1.36 1.7 0 0 Z " fill="#284699" transform="translate(46,20)"/>
<path d="M0 0 C0.66 0 1.32 0 2 0 C1.67 1.65 1.34 3.3 1 5 C-0.65 5 -2.3 5 -4 5 C-2.71937515 3.2925002 -1.38232443 1.62626404 0 0 Z " fill="#365DAB" transform="translate(46,73)"/>
<path d="M0 0 C0.99 0 1.98 0 3 0 C2 2 1 4 0 6 C-0.66 6 -1.32 6 -2 6 C-1.125 1.125 -1.125 1.125 0 0 Z " fill="#293484" transform="translate(67,79)"/>
<path d="M0 0 C2.97 0.495 2.97 0.495 6 1 C5.67 2.32 5.34 3.64 5 5 C2.5 3.625 2.5 3.625 0 2 C0 1.34 0 0.68 0 0 Z " fill="#DEE1E1" transform="translate(46,26)"/>
</svg>
