<?xml version="1.0" encoding="UTF-8"?>
<svg version="1.1" xmlns="http://www.w3.org/2000/svg" width="262" height="348">
<path d="M0 0 C1.3083078 -0.00637985 2.6166156 -0.0127597 3.96456909 -0.01933289 C5.39971886 -0.02086164 6.83486913 -0.02197556 8.27001953 -0.02270508 C9.7373152 -0.0259175 11.20461053 -0.02928156 12.67190552 -0.03279114 C15.75035342 -0.03878441 18.82877324 -0.04063087 21.90722656 -0.04003906 C25.85053758 -0.0399375 29.79366827 -0.05358219 33.73693657 -0.07081127 C36.76869533 -0.08193499 39.80041057 -0.08395815 42.83218765 -0.08342934 C44.28583522 -0.08460918 45.73948393 -0.08903123 47.19311142 -0.0967617 C49.22767567 -0.10656718 51.26229269 -0.10241785 53.296875 -0.09765625 C55.03322708 -0.09979378 55.03322708 -0.09979378 56.80465698 -0.10197449 C59.68690031 0.13770213 61.34285948 0.64175676 63.77783203 2.14526367 C64.76783203 1.48526367 65.75783203 0.82526367 66.77783203 0.14526367 C68.88380527 -0.11479855 68.88380527 -0.11479855 71.36122131 -0.12889099 C72.30169312 -0.13886612 73.24216492 -0.14884125 74.21113586 -0.15911865 C75.75634163 -0.16011566 75.75634163 -0.16011566 77.33276367 -0.16113281 C78.4192923 -0.16945633 79.50582092 -0.17777985 80.62527466 -0.18635559 C84.22954869 -0.21051584 87.83364176 -0.21923701 91.43798828 -0.22583008 C93.94323278 -0.23479484 96.44847672 -0.24391665 98.95372009 -0.25318909 C104.2137018 -0.2697001 109.47363934 -0.27741553 114.73364258 -0.28027344 C120.79411705 -0.28389904 126.85408205 -0.31372035 132.91440111 -0.35567802 C138.75939727 -0.39471284 144.60419363 -0.40586926 150.4493084 -0.40699959 C152.92792958 -0.41119649 155.40655141 -0.42360932 157.88508797 -0.44451714 C161.36288188 -0.4715077 164.83929193 -0.46658084 168.31713867 -0.45410156 C169.33310623 -0.46893585 170.34907379 -0.48377014 171.39582825 -0.49905396 C179.83579739 -0.41323441 186.38477827 2.04725806 192.65283203 7.77026367 C193.35408203 8.55401367 194.05533203 9.33776367 194.77783203 10.14526367 C195.76783203 10.85682617 195.76783203 10.85682617 196.77783203 11.58276367 C199.56567363 13.76076492 201.5800208 16.3839111 203.77783203 19.14526367 C204.35533203 19.84651367 204.93283203 20.54776367 205.52783203 21.27026367 C206.88993588 23.31341945 207.3527715 24.73658732 207.77783203 27.14526367 C207.96345703 28.17651367 208.14908203 29.20776367 208.34033203 30.27026367 C208.77783203 33.14526367 208.77783203 33.14526367 208.77783203 35.14526367 C209.43783203 35.14526367 210.09783203 35.14526367 210.77783203 35.14526367 C210.77783203 41.08526367 210.77783203 47.02526367 210.77783203 53.14526367 C210.11783203 53.47526367 209.45783203 53.80526367 208.77783203 54.14526367 C208.37053976 56.46682964 208.03344526 58.80214237 207.77783203 61.14526367 C207.11783203 61.14526367 206.45783203 61.14526367 205.77783203 61.14526367 C205.88095703 61.84651367 205.98408203 62.54776367 206.09033203 63.27026367 C205.48747393 68.81655818 200.56451208 72.35858363 196.77783203 76.14526367 C195.63314453 77.01151367 195.63314453 77.01151367 194.46533203 77.89526367 C192.30862694 79.70087723 190.85153934 81.21927607 189.15283203 83.39526367 C188.36908203 84.30276367 187.58533203 85.21026367 186.77783203 86.14526367 C185.78783203 86.14526367 184.79783203 86.14526367 183.77783203 86.14526367 C183.44783203 87.13526367 183.11783203 88.12526367 182.77783203 89.14526367 C178.71951312 91.79877988 175.58044166 93.38695689 170.77783203 94.14526367 C170.05829346 94.47445801 169.33875488 94.80365234 168.59741211 95.14282227 C165.07141617 96.39641473 162.02933554 96.46992893 158.28955078 96.55932617 C157.58635208 96.57869232 156.88315338 96.59805847 156.15864563 96.61801147 C153.92766185 96.6774655 151.69662549 96.72405416 149.46533203 96.77026367 C147.94643017 96.80847504 146.42754925 96.84752859 144.90869141 96.88745117 C141.19859736 96.98313784 137.48834552 97.0672944 133.77783203 97.14526367 C133.94081787 98.27375732 134.10380371 99.40225098 134.27172852 100.56494141 C135.10910153 108.15668643 134.90068504 115.80351759 134.87548828 123.43041992 C134.87362024 125.09907488 134.87219816 126.7677304 134.87120056 128.43638611 C134.86740577 132.80107166 134.85760185 137.16572325 134.84649658 141.53039551 C134.83621672 145.99511252 134.83168893 150.45983508 134.82666016 154.92456055 C134.8159765 163.6648104 134.79893711 172.4050328 134.77783203 181.14526367 C135.10783203 181.14526367 135.43783203 181.14526367 135.77783203 181.14526367 C135.77783203 183.12526367 135.77783203 185.10526367 135.77783203 187.14526367 C135.11783203 187.14526367 134.45783203 187.14526367 133.77783203 187.14526367 C133.98408203 188.34151367 134.19033203 189.53776367 134.40283203 190.77026367 C134.8954162 194.77426924 134.37656847 197.38823305 132.77783203 201.14526367 C132.32408203 202.30026367 131.87033203 203.45526367 131.40283203 204.64526367 C129.79121036 208.11644881 128.13329806 211.12732282 125.77783203 214.14526367 C124.78783203 214.14526367 123.79783203 214.14526367 122.77783203 214.14526367 C122.77783203 215.46526367 122.77783203 216.78526367 122.77783203 218.14526367 C121.78783203 218.47526367 120.79783203 218.80526367 119.77783203 219.14526367 C118.60494498 220.28463966 117.43669407 221.42948846 116.30126953 222.60620117 C114.49254578 224.43347594 112.62326205 226.17174324 110.71533203 227.89526367 C110.06435547 228.48823242 109.41337891 229.08120117 108.74267578 229.69213867 C106.67680214 231.21998161 105.22828154 231.53388392 102.77783203 232.14526367 C101.7673066 233.13462627 100.76752357 234.13506039 99.77783203 235.14526367 C86.46585958 241.40028687 69.36708698 240.67501532 55.77783203 236.14526367 C53.25535722 234.99868421 51.76167476 234.1291064 49.77783203 232.14526367 C48.87033203 231.75338867 47.96283203 231.36151367 47.02783203 230.95776367 C43.50274156 228.99184783 41.70946931 227.00903159 39.22314453 223.91088867 C37.65327873 221.92648751 37.65327873 221.92648751 35.09033203 219.52026367 C31.33788774 215.66640197 29.6746023 212.39777527 28.77783203 207.14526367 C28.27779411 205.87175049 28.27779411 205.87175049 27.76765442 204.57250977 C26.50870171 200.21340371 26.49027418 196.25949951 26.50317383 191.74682617 C26.4980629 190.819245 26.49295197 189.89166382 26.48768616 188.93597412 C26.47382626 185.88067104 26.47474399 182.82559439 26.47705078 179.77026367 C26.47316238 177.64086829 26.46882741 175.51147368 26.46406555 173.38208008 C26.45661146 168.92355838 26.45688913 164.46511588 26.4621582 160.0065918 C26.46795707 154.29684072 26.45100766 148.58741358 26.42781353 142.87771606 C26.4130748 138.48191436 26.4122046 134.08619069 26.41532326 129.69036865 C26.41481029 127.58525958 26.40957724 125.48014611 26.39951134 123.37506104 C26.38715936 120.43106061 26.39393097 117.48769168 26.40551758 114.54370117 C26.39787384 113.6770282 26.3902301 112.81035522 26.38235474 111.91741943 C26.42567943 106.930819 26.96101189 103.44031586 29.77783203 99.14526367 C30.76783203 98.48526367 31.75783203 97.82526367 32.77783203 97.14526367 C31.53171143 97.12544434 30.28559082 97.105625 29.00170898 97.08520508 C24.37032152 97.00902713 19.73924322 96.92032835 15.1081543 96.82788086 C13.10528679 96.7896415 11.10235178 96.75477986 9.09936523 96.72338867 C6.21720286 96.67762871 3.33550309 96.61965213 0.45361328 96.55932617 C-0.43927902 96.54777496 -1.33217133 96.53622375 -2.25212097 96.52432251 C-6.70189958 96.41912755 -10.15316012 96.1355445 -14.22216797 94.14526367 C-15.06779297 93.98026367 -15.91341797 93.81526367 -16.78466797 93.64526367 C-20.39285603 92.90512253 -22.62126213 91.74616951 -25.22216797 89.14526367 C-26.67623047 88.18620117 -26.67623047 88.18620117 -28.15966797 87.20776367 C-32.41077374 84.34477407 -35.03165076 81.13341018 -38.22216797 77.14526367 C-39.05748047 76.37182617 -39.05748047 76.37182617 -39.90966797 75.58276367 C-41.51818815 73.8210511 -41.66560256 72.44109597 -42.22216797 70.14526367 C-42.71458984 69.54198242 -43.20701172 68.93870117 -43.71435547 68.31713867 C-45.45519163 65.80961302 -45.66661185 64.34995139 -45.84716797 61.33276367 C-46.06687108 58.23403433 -46.33329014 55.20926025 -46.84716797 52.14526367 C-47.22216797 49.14526367 -47.22216797 49.14526367 -46.22216797 47.14526367 C-46.18194406 44.81227707 -46.1789655 42.47819702 -46.22216797 40.14526367 C-45.23216797 39.65026367 -45.23216797 39.65026367 -44.22216797 39.14526367 C-44.07779297 38.25838867 -43.93341797 37.37151367 -43.78466797 36.45776367 C-42.56557257 29.2786463 -37.87261968 22.05454207 -32.16357422 17.50463867 C-31.52291016 17.05604492 -30.88224609 16.60745117 -30.22216797 16.14526367 C-27.15499853 13.88999202 -24.61995566 11.57714745 -22.03466797 8.77026367 C-18.02143672 5.02458118 -13.7222828 2.16380346 -8.22216797 1.14526367 C-5.42903899 -0.25130082 -3.12481414 0.01030398 0 0 Z M0.77783203 44.14526367 C4.98726262 48.88174053 4.98726262 48.88174053 7.77783203 50.14526367 C7.77783203 49.48526367 7.77783203 48.82526367 7.77783203 48.14526367 C8.76783203 48.14526367 9.75783203 48.14526367 10.77783203 48.14526367 C10.77783203 48.80526367 10.77783203 49.46526367 10.77783203 50.14526367 C18.69783203 50.14526367 26.61783203 50.14526367 34.77783203 50.14526367 C35.10783203 49.48526367 35.43783203 48.82526367 35.77783203 48.14526367 C35.11783203 46.82526367 34.45783203 45.50526367 33.77783203 44.14526367 C22.88783203 44.14526367 11.99783203 44.14526367 0.77783203 44.14526367 Z M74.77783203 44.14526367 C74.98408203 44.92901367 75.19033203 45.71276367 75.40283203 46.52026367 C75.52658203 47.38651367 75.65033203 48.25276367 75.77783203 49.14526367 C75.11783203 49.80526367 74.45783203 50.46526367 73.77783203 51.14526367 C74.63054687 51.12786133 74.63054687 51.12786133 75.50048828 51.11010742 C80.37220968 51.05317579 84.99827268 51.14952214 89.77783203 52.14526367 C90.10783203 52.80526367 90.43783203 53.46526367 90.77783203 54.14526367 C93.11030964 54.48453314 95.44368674 54.81766433 97.77783203 55.14526367 C98.43783203 55.80526367 99.09783203 56.46526367 99.77783203 57.14526367 C101.54126953 57.73307617 101.54126953 57.73307617 103.34033203 58.33276367 C108.60544422 60.18762888 112.55711141 63.57914555 116.77783203 67.14526367 C119.86209729 65.60313104 121.95628938 63.03526821 124.27783203 60.52026367 C125.77783203 59.14526367 125.77783203 59.14526367 127.90283203 58.20776367 C129.98775455 57.31222103 129.98775455 57.31222103 130.39501953 55.07885742 C130.58451172 54.12172852 130.58451172 54.12172852 130.77783203 53.14526367 C137.31846686 51.22979204 143.48293574 50.73427615 150.27783203 50.52026367 C151.29103516 50.4815918 152.30423828 50.44291992 153.34814453 50.40307617 C155.82453487 50.30962748 158.30093354 50.22386494 160.77783203 50.14526367 C161.10783203 49.15526367 161.43783203 48.16526367 161.77783203 47.14526367 C158.63903276 44.00646441 156.62233542 44.02939321 152.26170349 44.02084351 C151.10832237 44.02623642 151.10832237 44.02623642 149.93164062 44.03173828 C149.12180222 44.03159225 148.31196381 44.03144623 147.47758484 44.03129578 C144.79378607 44.0319939 142.11005622 44.03978163 139.42626953 44.04760742 C137.56824786 44.04947196 135.7102257 44.05089569 133.85220337 44.05189514 C128.95640715 44.05571752 124.06064048 44.06554544 119.16485596 44.07659912 C114.17126872 44.08681923 109.17767671 44.09139405 104.18408203 44.09643555 C94.3819857 44.10716794 84.57991132 44.12424103 74.77783203 44.14526367 Z M75.77783203 100.14526367 C75.77783203 129.84526367 75.77783203 159.54526367 75.77783203 190.14526367 C76.43783203 190.47526367 77.09783203 190.80526367 77.77783203 191.14526367 C78.10783203 192.13526367 78.43783203 193.12526367 78.77783203 194.14526367 C82.24283203 193.65026367 82.24283203 193.65026367 85.77783203 193.14526367 C85.84727397 182.11449273 85.90061375 171.08377361 85.93326855 160.05282879 C85.94893945 154.93097412 85.97020371 149.80926874 86.00415039 144.6875 C86.03669303 139.74677369 86.05467431 134.80619118 86.06246376 129.86536598 C86.06801644 127.97825671 86.07885919 126.09115551 86.0950222 124.20410728 C86.11672886 121.56542183 86.11980181 118.92733427 86.1184082 116.28857422 C86.12919403 115.50454727 86.13997986 114.72052032 86.15109253 113.91273499 C86.18452369 109.84425405 86.18452369 109.84425405 84.41670227 106.30427551 C83.87587509 105.92180161 83.33504791 105.5393277 82.77783203 105.14526367 C81.93220703 104.25838867 81.08658203 103.37151367 80.21533203 102.45776367 C78.09599747 99.91584353 78.09599747 99.91584353 75.77783203 100.14526367 Z " fill="#EBEAEB" transform="translate(51.22216796875,-0.145263671875)"/>
<path d="M0 0 C1.07461739 0.00539291 1.07461739 0.00539291 2.17094421 0.01089478 C2.92211517 0.01074875 3.67328613 0.01060272 4.44721985 0.01045227 C6.94166404 0.01115153 9.43603448 0.01894452 11.9304657 0.02676392 C13.65539509 0.02862805 15.38032501 0.03005197 17.10525513 0.03105164 C21.65418448 0.03487719 26.20308211 0.04470779 30.7519989 0.05575562 C35.39025951 0.06596893 40.02852522 0.07054908 44.66679382 0.07559204 C53.77422967 0.08633003 62.88164192 0.1034069 71.98905945 0.12442017 C71.98905945 0.78442017 71.98905945 1.44442017 71.98905945 2.12442017 C72.97905945 1.79442017 73.96905945 1.46442017 74.98905945 1.12442017 C77.48905945 2.93692017 77.48905945 2.93692017 79.98905945 5.12442017 C80.97905945 5.78442017 81.96905945 6.44442017 82.98905945 7.12442017 C83.64905945 6.46442017 84.30905945 5.80442017 84.98905945 5.12442017 C89.09012726 3.03339098 92.60966948 2.85517089 97.17655945 2.87442017 C98.40761414 2.86926392 99.63866882 2.86410767 100.9070282 2.85879517 C103.98905945 3.12442017 103.98905945 3.12442017 105.98905945 5.12442017 C106.77280945 5.55754517 107.55655945 5.99067017 108.36405945 6.43692017 C112.56388369 9.13680718 114.91351549 12.6540178 116.98905945 17.12442017 C117.31905945 17.45442017 117.64905945 17.78442017 117.98905945 18.12442017 C118.27780945 17.05192017 118.56655945 15.97942017 118.86405945 14.87442017 C119.71726054 12.03041653 120.55270975 9.68933034 121.98905945 7.12442017 C122.64905945 7.12442017 123.30905945 7.12442017 123.98905945 7.12442017 C123.98905945 6.46442017 123.98905945 5.80442017 123.98905945 5.12442017 C129.22614037 2.06122189 132.96295892 0.02171119 139.1438446 -0.08432007 C140.19568939 -0.10361069 141.24753418 -0.12290131 142.33125305 -0.14277649 C147.15156019 -0.20066866 151.9717196 -0.24981576 156.7922821 -0.28060913 C159.32953013 -0.30216618 161.86670425 -0.33624109 164.40361023 -0.38314819 C168.07045055 -0.45030907 171.73575241 -0.47763879 175.40312195 -0.49667358 C177.09110397 -0.53841957 177.09110397 -0.53841957 178.81318665 -0.58100891 C186.38560823 -0.56138755 191.35465673 0.93618185 196.98905945 6.12442017 C200.76919065 10.73365449 202.98905945 15.0292728 202.98905945 21.12442017 C201.7562041 26.76959993 199.41778701 30.34379908 194.98905945 34.12442017 C194.47730164 34.66067017 193.96554382 35.19692017 193.4382782 35.74942017 C189.54132343 37.93718425 185.62141279 37.43814748 181.23905945 37.31192017 C179.90681335 37.29161743 179.90681335 37.29161743 178.5476532 37.27090454 C176.36083367 37.23563326 174.17525978 37.18634769 171.98905945 37.12442017 C173.18486412 39.27721679 174.38125142 41.42968151 175.5789032 43.58145142 C176.43069629 45.11751043 177.27832312 46.65590463 178.1179657 48.19863892 C180.08428313 51.79556105 182.11126184 55.3448484 184.2351532 58.85098267 C184.83698425 59.84460815 184.83698425 59.84460815 185.45097351 60.85830688 C186.25273468 62.17721998 187.05794038 63.49404686 187.86698914 64.8085022 C189.89908849 68.14720117 191.83596151 71.37516604 192.98905945 75.12442017 C192.65905945 75.78442017 192.32905945 76.44442017 191.98905945 77.12442017 C192.64905945 77.12442017 193.30905945 77.12442017 193.98905945 77.12442017 C195.5962836 81.94609263 195.37535088 85.82920771 193.92655945 90.68692017 C191.15655434 95.60144536 187.79466189 98.87995321 182.61405945 101.17788696 C177.40355398 102.53841563 172.34308462 102.48979255 166.9773407 102.53067017 C165.81333237 102.54207031 164.64932404 102.55347046 163.45004272 102.56521606 C160.98985913 102.5840757 158.52962548 102.59716798 156.06938171 102.60488892 C152.33140947 102.62426543 148.59565496 102.68632828 144.85820007 102.74942017 C142.46042659 102.76248569 140.06263747 102.77298449 137.6648407 102.78067017 C136.55925308 102.80536377 135.45366547 102.83005737 134.3145752 102.85549927 C126.37089944 102.81055776 120.39188972 100.9367357 113.98905945 96.12442017 C111.91904191 93.58906339 110.43015684 91.05028456 108.98905945 88.12442017 C107.8780652 86.45792879 106.74273946 84.80472827 105.52030945 83.21817017 C103.4662088 80.40950193 101.90728719 77.4072567 100.27030945 74.34317017 C98.99026026 72.12649962 97.56426211 70.13921427 95.98905945 68.12442017 C93.19439171 72.22114901 90.44849406 76.33870439 87.87968445 80.58145142 C87.52454773 81.16773315 87.16941101 81.75401489 86.80351257 82.35806274 C85.77235658 84.06916678 84.74778286 85.78423212 83.72343445 87.49942017 C81.98905945 90.12442017 81.98905945 90.12442017 79.98905945 91.12442017 C79.55593445 92.09379517 79.12280945 93.06317017 78.67655945 94.06192017 C76.71627885 97.61946644 75.77475445 98.01641187 71.98905945 99.12442017 C71.3857782 99.4634436 70.78249695 99.80246704 70.16093445 100.15176392 C65.52029486 102.23003596 59.64209271 101.81119828 54.78593445 100.55410767 C51.41417484 99.20823723 50.03245848 98.18951871 47.98905945 95.12442017 C47.15374695 96.05254517 47.15374695 96.05254517 46.30155945 96.99942017 C41.75650822 101.17595372 37.47353496 101.49708988 31.49687195 101.39004517 C27.83396777 101.00207401 25.24743215 99.82148928 21.98905945 98.12442017 C20.99905945 97.62942017 20.99905945 97.62942017 19.98905945 97.12442017 C19.98905945 96.13442017 19.98905945 95.14442017 19.98905945 94.12442017 C19.37030945 94.08317017 18.75155945 94.04192017 18.11405945 93.99942017 C17.41280945 93.71067017 16.71155945 93.42192017 15.98905945 93.12442017 C14.80155945 90.12442017 14.80155945 90.12442017 13.98905945 87.12442017 C13.65905945 86.79442017 13.32905945 86.46442017 12.98905945 86.12442017 C12.89586496 84.58959047 12.87160145 83.05049934 12.87553406 81.5128479 C12.87560959 80.53190659 12.87568512 79.55096527 12.87576294 78.54029846 C12.88092422 77.47364456 12.88608551 76.40699066 12.8914032 75.30801392 C12.89281815 74.22182266 12.89423309 73.13563141 12.89569092 72.01652527 C12.90130897 68.53162942 12.91386452 65.04679675 12.92655945 61.56192017 C12.93157212 59.2058013 12.93613543 56.84968143 12.94023132 54.49356079 C12.95128426 48.70382552 12.96803994 42.91412736 12.98905945 37.12442017 C12.3826915 37.14307632 11.77632355 37.16173248 11.15158081 37.18095398 C8.38269907 37.25537767 5.61402832 37.30146489 2.8445282 37.34707642 C1.89058167 37.37692627 0.93663513 37.40677612 -0.04621887 37.43753052 C-5.63537656 37.5065923 -9.22181971 37.29618439 -13.69844055 33.56192017 C-17.80042629 28.80696526 -18.84812279 24.56668655 -19.26094055 18.37442017 C-19.01094055 15.12442017 -19.01094055 15.12442017 -17.01094055 12.12442017 C-16.68094055 11.13442017 -16.35094055 10.14442017 -16.01094055 9.12442017 C-12.85687524 5.97035486 -9.74516335 3.58741818 -6.01094055 1.12442017 C-4.32590356 -0.56061683 -2.24834171 0.00476033 0 0 Z M53.98905945 37.12442017 C54.31905945 42.40442017 54.64905945 47.68442017 54.98905945 53.12442017 C55.31905945 52.46442017 55.64905945 51.80442017 55.98905945 51.12442017 C56.97905945 50.79442017 57.96905945 50.46442017 58.98905945 50.12442017 C59.29843445 49.03129517 59.60780945 47.93817017 59.92655945 46.81192017 C61.03744563 42.95649166 62.0904409 41.73317686 64.98905945 39.12442017 C64.98905945 38.46442017 64.98905945 37.80442017 64.98905945 37.12442017 C61.35905945 37.12442017 57.72905945 37.12442017 53.98905945 37.12442017 Z " fill="#F4F3F4" transform="translate(44.01094055175781,245.87557983398438)"/>
<path d="M0 0 C1.08081848 0.00007553 2.16163696 0.00015106 3.27520752 0.00022888 C4.43574646 0.00539017 5.5962854 0.01055145 6.79199219 0.01586914 C7.98491882 0.01728409 9.17784546 0.01869904 10.40692139 0.02015686 C14.21759548 0.02575501 18.02821085 0.03830721 21.83886719 0.05102539 C24.42219967 0.05604063 27.00553308 0.06060349 29.58886719 0.06469727 C35.92222056 0.07572384 42.25553968 0.09246016 48.58886719 0.11352539 C47.4084082 1.29265503 47.4084082 1.29265503 46.20410156 2.49560547 C39.8355554 8.8706914 35.27286201 14.82878127 31.58886719 23.11352539 C29.60886719 23.11352539 27.62886719 23.11352539 25.58886719 23.11352539 C24.59886719 26.57852539 24.59886719 26.57852539 23.58886719 30.11352539 C11.70886719 30.44352539 -0.17113281 30.77352539 -12.41113281 31.11352539 C-14.17388895 34.63903766 -13.32115217 38.37930801 -12.41113281 42.11352539 C-10.58086665 45.60499699 -8.35047185 47.72160016 -4.66642761 49.25871277 C-1.14402842 50.18366472 1.84669993 50.35839882 5.48608398 50.35302734 C6.48037415 50.35604858 6.48037415 50.35604858 7.49475098 50.35913086 C8.92696912 50.36265999 10.35920289 50.36192958 11.79141808 50.35735512 C14.07823076 50.3517075 16.3645461 50.36101402 18.65132141 50.3745575 C25.15111325 50.41142075 31.650741 50.43037556 38.15063477 50.41894531 C86.87076217 50.35910626 86.87076217 50.35910626 106.06933594 68.42993164 C115.58201686 78.56204295 118.73164334 90.54696737 118.75 104.11303711 C118.7549649 104.99839142 118.75992981 105.88374573 118.76504517 106.79592896 C118.77959655 109.7116983 118.78645632 112.62741327 118.79199219 115.54321289 C118.79774851 117.57813518 118.80350618 119.61305746 118.80926514 121.64797974 C118.8197545 125.90977225 118.82561097 130.17154601 118.82910156 134.43334961 C118.83458821 139.88281435 118.85862875 145.33202949 118.88707352 150.78141594 C118.9057331 154.9834159 118.91090722 159.18535606 118.91243744 163.38739395 C118.91545594 165.39596041 118.92345723 167.40452602 118.93662262 169.41305161 C118.95375594 172.22730077 118.95178534 175.04094387 118.9453125 177.85522461 C118.95452728 178.67730408 118.96374207 179.49938354 118.97323608 180.34637451 C118.90778319 189.47154929 115.4169635 197.12736243 109.58886719 204.11352539 C107.37633861 206.06070662 105.09972863 207.81036313 102.71386719 209.53930664 C100.04829606 211.51398525 97.85586282 213.70027198 95.58886719 216.11352539 C95.25886719 215.45352539 94.92886719 214.79352539 94.58886719 214.11352539 C93.72519531 214.42805664 92.86152344 214.74258789 91.97167969 215.06665039 C79.55881562 218.90804481 66.19888598 217.10277696 54.48339844 211.83618164 C44.53360947 205.91464732 39.55021895 197.03193809 36.58886719 186.11352539 C35.91580458 180.66377011 35.79753862 175.28570852 35.77636719 169.80102539 C35.75315244 168.36674373 35.72777303 166.93249542 35.70019531 165.49829102 C35.6382335 162.03672659 35.60519944 158.57564219 35.58886719 155.11352539 C35.32332031 155.74000977 35.05777344 156.36649414 34.78417969 157.01196289 C34.43097656 157.82922852 34.07777344 158.64649414 33.71386719 159.48852539 C33.36582031 160.30063477 33.01777344 161.11274414 32.65917969 161.94946289 C31.58886719 164.11352539 31.58886719 164.11352539 29.58886719 166.11352539 C28.71868494 162.34214604 28.44237797 158.81674627 28.39599609 154.94970703 C28.37993317 153.72816422 28.36387024 152.5066214 28.34732056 151.24806213 C28.30272953 145.69093163 28.26141212 140.13392695 28.23876953 134.57666016 C28.22541321 131.64437791 28.19751865 128.71278876 28.15673828 125.78076172 C28.10734349 122.22820103 28.08264194 118.67627004 28.07554245 115.12338066 C28.0656046 113.12141781 28.03138621 111.11962279 27.99673462 109.11793518 C28.02029557 98.99351204 28.02029557 98.99351204 30.98486328 95.27929688 C33.48118756 93.20308342 34.55410294 92.74140765 37.58886719 92.11352539 C37.85699219 91.53602539 38.12511719 90.95852539 38.40136719 90.36352539 C40.65488301 86.09370594 45.10900039 83.60681432 49.58886719 82.11352539 C51.3168207 82.04549572 53.04722084 82.02856894 54.77636719 82.05102539 C56.12794922 82.06456055 56.12794922 82.06456055 57.50683594 82.07836914 C58.19390625 82.0899707 58.88097656 82.10157227 59.58886719 82.11352539 C59.58807159 83.37362427 59.587276 84.63372314 59.5864563 85.93200684 C59.58285047 97.82035256 59.61069225 109.70826641 59.66914558 121.59647369 C59.69818985 127.70805522 59.71624044 133.81925342 59.70898438 139.9309082 C59.70238632 145.83155766 59.72490465 151.73144995 59.76742172 157.63194275 C59.77854425 159.88050135 59.77926087 162.1291368 59.76929092 164.37770081 C59.75709507 167.53331556 59.78224317 170.68662752 59.81591797 173.84204102 C59.79758659 175.2295607 59.79758659 175.2295607 59.77888489 176.64511108 C59.90686539 183.32167887 61.87823394 187.36215073 66.58886719 192.11352539 C70.55242897 194.55953605 74.31474293 194.32425669 78.90136719 194.23852539 C80.155625 194.22047852 81.40988281 194.20243164 82.70214844 194.18383789 C83.65476563 194.16063477 84.60738281 194.13743164 85.58886719 194.11352539 C85.91886719 192.46352539 86.24886719 190.81352539 86.58886719 189.11352539 C86.91886719 189.77352539 87.24886719 190.43352539 87.58886719 191.11352539 C92.93384421 186.47183482 94.35456907 182.38643983 94.85629272 175.37785339 C94.87401317 174.0244573 94.8811764 172.67089374 94.87939453 171.31738281 C94.88611176 170.57164505 94.89282898 169.82590729 94.89974976 169.05757141 C94.91862596 166.61130974 94.92264869 164.16532395 94.92480469 161.71899414 C94.93123997 160.00417471 94.93796886 158.28935637 94.94497681 156.57453918 C94.95692374 152.98619036 94.96066031 149.39793761 94.95947266 145.80957031 C94.95926965 141.23344552 94.98656452 136.65794299 95.02101707 132.08196545 C95.04336127 128.54125696 95.0473079 125.00069644 95.0462532 121.4599247 C95.04859813 119.77397837 95.05735854 118.08802727 95.07291794 116.40215111 C95.17026962 104.76455458 94.58314993 95.24984852 86.58886719 86.11352539 C86.58886719 85.45352539 86.58886719 84.79352539 86.58886719 84.11352539 C86.00621094 83.83379883 85.42355469 83.55407227 84.82324219 83.26586914 C82.72118896 82.18176827 80.80811735 80.98207767 78.83886719 79.67602539 C69.25919014 73.76739247 61.52109286 73.75530926 50.58886719 74.11352539 C50.18667969 75.32008789 50.18667969 75.32008789 49.77636719 76.55102539 C49.38449219 77.39665039 48.99261719 78.24227539 48.58886719 79.11352539 C45.36735475 80.18736287 42.99660941 80.25979245 39.60791016 80.29052734 C37.75986282 80.3097802 37.75986282 80.3097802 35.8744812 80.329422 C34.52667648 80.33759269 33.17886717 80.34503579 31.83105469 80.35180664 C31.14998783 80.35588217 30.46892097 80.3599577 29.76721573 80.36415672 C26.15829016 80.38500707 22.54940243 80.39930998 18.94042969 80.40869141 C15.23173107 80.41971926 11.52363851 80.45407899 7.81515312 80.49386311 C4.94789601 80.5201507 2.08078022 80.52839417 -0.78658676 80.53197289 C-2.15240419 80.53681214 -3.51821644 80.54834937 -4.88391495 80.56701088 C-17.07649247 80.72318317 -25.23056674 78.14399857 -34.41113281 70.11352539 C-42.43279389 61.90531405 -45.80301738 52.39194843 -45.69628906 41.09399414 C-44.35785368 27.10459417 -35.17416273 18.10691981 -25.09863281 9.42602539 C-17.68633055 3.43288293 -9.56902307 -0.02235753 0 0 Z " fill="#38569B" transform="translate(58.4111328125,6.886474609375)"/>
<path d="M0 0 C2.05778181 -0.00270107 4.11556236 -0.00658857 6.17333984 -0.01159668 C10.4665961 -0.0174628 14.75951736 -0.00902239 19.05273438 0.00976562 C24.52296626 0.03255317 29.9924128 0.01941452 35.46261597 -0.00452423 C39.7060322 -0.01906058 43.9492659 -0.01434047 48.19268799 -0.00401306 C50.20827327 -0.00136738 52.22387578 -0.00453842 54.23944092 -0.01393127 C69.91809645 -0.07098307 83.56239234 0.56246619 95.30078125 12.19140625 C103.1230309 20.71241765 105.12407563 29.26836929 104.90234375 40.6328125 C104.18658788 50.69371891 99.77990467 58.90325211 92.33203125 65.58984375 C89.81585647 67.65349717 87.25091447 69.60955805 84.625 71.53125 C83.85671875 72.10230469 83.0884375 72.67335938 82.296875 73.26171875 C74.12060281 79.05086252 66.51968024 81.00104481 56.55859375 80.82421875 C55.63909439 80.81997391 54.71959503 80.81572906 53.77223206 80.81135559 C50.86867541 80.79471776 47.96584274 80.75709467 45.0625 80.71875 C43.08008823 80.70368386 41.09766546 80.68999886 39.11523438 80.67773438 C34.28488222 80.64486326 29.45506336 80.59318611 24.625 80.53125 C24.58417253 78.95334373 24.55525818 77.37512678 24.53125 75.796875 C24.51384766 74.91805664 24.49644531 74.03923828 24.47851562 73.13378906 C24.71393159 68.95123211 26.07101665 65.82305076 28.625 62.53125 C30.57681256 60.80341593 32.5765136 59.31426393 34.73046875 57.84765625 C36.80073239 56.4921088 36.80073239 56.4921088 38.9375 54.21875 C42.18106366 50.97518634 45.90971866 51.34787432 50.26171875 51.21484375 C51.56044922 51.17294922 52.85917969 51.13105469 54.19726562 51.08789062 C55.56900761 51.04808013 56.94075244 51.00836784 58.3125 50.96875 C59.69597645 50.92554165 61.07944027 50.88192661 62.46289062 50.83789062 C65.85015719 50.73166972 69.23749799 50.62962642 72.625 50.53125 C72.625 49.87125 72.625 49.21125 72.625 48.53125 C73.57375 47.9125 74.5225 47.29375 75.5 46.65625 C79.0909735 44.27400404 79.0909735 44.27400404 80.625 40.53125 C81.08911064 35.426033 80.50713124 32.73435806 77.625 28.53125 C77.625 27.87125 77.625 27.21125 77.625 26.53125 C72.47756679 24.44187646 68.09888147 24.28047564 62.6484375 24.37109375 C61.80076813 24.37629532 60.95309875 24.38149689 60.07974243 24.38685608 C57.38631581 24.40458232 54.69327928 24.43574649 52 24.46875 C49.29961852 24.49641784 46.59929229 24.5211192 43.89883423 24.53993225 C42.22265734 24.55213718 40.54650866 24.56968928 38.87045288 24.59324646 C35.25577538 24.62426193 32.10638332 24.43640111 28.625 23.53125 C16.84583621 22.42580189 5.06745816 22.45707848 -6.75 22.78125 C-8.00353271 22.80751465 -9.25706543 22.8337793 -10.54858398 22.86083984 C-11.73653564 22.90160645 -12.9244873 22.94237305 -14.1484375 22.984375 C-15.20466309 23.01692383 -16.26088867 23.04947266 -17.34912109 23.08300781 C-20.88357473 23.60658832 -23.32419073 24.68758764 -26.375 26.53125 C-29.30112602 30.49045195 -29.30112602 30.49045195 -30.375 40.53125 C-37.965 40.53125 -45.555 40.53125 -53.375 40.53125 C-53.375 27.88927115 -51.1108722 19.73447339 -42.375 10.53125 C-30.83891872 -0.85237206 -15.05019741 -0.07013634 0 0 Z " fill="#364D91" transform="translate(148.375,6.46875)"/>
<path d="M0 0 C0.98136932 -0.00953201 1.96273865 -0.01906403 2.97384644 -0.02888489 C4.55517868 -0.02751778 4.55517868 -0.02751778 6.16845703 -0.02612305 C7.80332565 -0.03255074 7.80332565 -0.03255074 9.47122192 -0.03910828 C11.77605495 -0.04484938 14.08090609 -0.04535346 16.38574219 -0.04101562 C19.9060777 -0.0378599 23.42556941 -0.06130377 26.94580078 -0.08666992 C29.18668514 -0.0889434 31.42757175 -0.08964619 33.66845703 -0.08862305 C34.71863007 -0.09783279 35.7688031 -0.10704254 36.85079956 -0.11653137 C43.39729172 -0.07524574 48.20722053 0.4306092 53.05126953 5.2746582 C53.45751953 7.48168945 53.45751953 7.48168945 53.55126953 10.0871582 C53.60283203 10.93922852 53.65439453 11.79129883 53.70751953 12.66918945 C52.94559164 15.69422459 51.83853779 17.43260171 49.33349609 19.32177734 C43.88808037 21.59536074 37.48705694 20.76575466 31.67626953 20.5871582 C30.25833996 20.56205207 28.84036774 20.53924295 27.42236328 20.51879883 C23.96443965 20.46396644 20.50812765 20.37782431 17.05126953 20.2746582 C17.40205566 20.87076904 17.7528418 21.46687988 18.11425781 22.08105469 C25.79223299 35.14505359 33.34474159 48.26127281 40.69433594 61.51269531 C41.25169434 62.5156665 41.80905273 63.5186377 42.38330078 64.55200195 C42.87548096 65.44137451 43.36766113 66.33074707 43.87475586 67.24707031 C44.89329698 69.20225842 44.89329698 69.20225842 46.05126953 70.2746582 C46.76321333 77.39409614 46.76321333 77.39409614 43.67626953 81.2121582 C40.10140521 84.02098017 38.43143569 84.40617606 33.96240234 84.4675293 C32.36999725 84.49162369 32.36999725 84.49162369 30.74542236 84.51620483 C25.88318474 84.56062183 21.02108448 84.60172609 16.15869141 84.62475586 C13.59414595 84.64131179 11.02964656 84.66859658 8.46533203 84.70678711 C4.76977571 84.76155373 1.07530204 84.78343165 -2.62060547 84.7980957 C-4.33651886 84.83209976 -4.33651886 84.83209976 -6.08709717 84.86679077 C-14.96976345 84.8432238 -14.96976345 84.8432238 -18.65673828 81.86694336 C-21.81521189 78.29465184 -22.33827399 76.12847061 -22.31201172 71.3137207 C-21.70838444 67.9256192 -19.53313567 66.35478922 -16.94873047 64.2746582 C-16.45373047 63.7796582 -16.45373047 63.7796582 -15.94873047 63.2746582 C-13.6572163 63.18674845 -11.36300523 63.16771782 -9.06982422 63.17700195 C-8.03983055 63.17912437 -8.03983055 63.17912437 -6.98902893 63.18128967 C-4.78805246 63.18690341 -2.58717638 63.19945813 -0.38623047 63.2121582 C1.10270036 63.21717144 2.59163277 63.22173465 4.08056641 63.22583008 C7.73750028 63.23687727 11.39437512 63.25415107 15.05126953 63.2746582 C11.52881876 56.80561379 7.99895437 50.34111036 4.42626953 43.8996582 C4.0145752 43.15361328 3.60288086 42.40756836 3.17871094 41.63891602 C0.75916581 37.27421113 -1.7176641 32.95121092 -4.26123047 28.6574707 C-4.81214355 27.7195166 -5.36305664 26.7815625 -5.93066406 25.81518555 C-7.00606603 23.98875992 -8.09195911 22.16846117 -9.18945312 20.35522461 C-13.84289938 12.42005123 -13.84289938 12.42005123 -12.94873047 7.2746582 C-9.54588753 1.92733358 -6.25928589 0.03348445 0 0 Z " fill="#425CA3" transform="translate(183.94873046875,254.725341796875)"/>
<path d="M0 0 C12.6028387 -0.88383544 23.01917682 0.41934924 33.5 8.375 C44.50881536 19.93425613 45.46851684 30.74551633 45.43359375 46.09765625 C45.43816173 47.85924988 45.44346913 49.62084173 45.44947815 51.38243103 C45.45837907 55.06142451 45.45601951 58.74020054 45.44604492 62.41918945 C45.43454052 67.11879043 45.45480445 71.81764164 45.48396206 76.5171442 C45.50235891 80.15043347 45.502025 83.78354403 45.49632454 87.41686821 C45.49617185 89.14911389 45.50217261 90.88137208 45.51461601 92.61357307 C45.52959645 95.03980998 45.51879992 97.46467343 45.50170898 99.89086914 C45.51137695 100.59602661 45.52104492 101.30118408 45.53100586 102.02770996 C45.45249743 107.38545832 43.96820481 111.59993243 41 116 C38.4375 117.8125 38.4375 117.8125 36 119 C35.57460937 119.51175781 35.14921875 120.02351563 34.7109375 120.55078125 C31.60164147 123.18445437 27.83264314 122.39518498 23.94140625 122.2734375 C18.32747493 121.75155809 15.39198704 119.74856021 11.87850952 115.51696777 C8.32297128 110.65315007 8.18170823 106.60918501 8.31884766 100.72851562 C8.31753342 99.23446701 8.31753342 99.23446701 8.31619263 97.7102356 C8.32034898 94.44142264 8.36691045 91.17470126 8.4140625 87.90625 C8.42526153 85.63083008 8.43379837 83.35539564 8.43978882 81.07995605 C8.46263106 75.10867951 8.52151595 69.13828709 8.5880127 63.1673584 C8.66036186 55.99380767 8.68776304 48.81996031 8.72273254 41.64614868 C8.78079655 30.76348537 8.89580337 19.88275961 9 9 C-14.76 8.67 -38.52 8.34 -63 8 C-63 7.67 -63 7.34 -63 7 C-42.87 6.67 -22.74 6.34 -2 6 C-1.34 4.02 -0.68 2.04 0 0 Z M18 20 C18 49.7 18 79.4 18 110 C18.66 110.33 19.32 110.66 20 111 C20.33 111.99 20.66 112.98 21 114 C24.465 113.505 24.465 113.505 28 113 C28.06944194 101.96922906 28.12278172 90.93850993 28.15543652 79.90756512 C28.17110742 74.78571044 28.19237168 69.66400507 28.22631836 64.54223633 C28.258861 59.60151002 28.27684228 54.66092751 28.28463173 49.72010231 C28.29018441 47.83299304 28.30102716 45.94589183 28.31719017 44.05884361 C28.33889682 41.42015816 28.34196978 38.78207059 28.34057617 36.14331055 C28.351362 35.3592836 28.36214783 34.57525665 28.3732605 33.76747131 C28.40669166 29.69899038 28.40669166 29.69899038 26.63887024 26.15901184 C26.09804306 25.77653793 25.55721588 25.39406403 25 25 C24.154375 24.113125 23.30875 23.22625 22.4375 22.3125 C20.31816544 19.77057986 20.31816544 19.77057986 18 20 Z " fill="#DBDADB" transform="translate(109,80)"/>
<path d="M0 0 C0.70456329 -0.00511093 1.40912659 -0.01022186 2.13504028 -0.01548767 C4.45933576 -0.02936444 6.78333409 -0.0284284 9.10766602 -0.02612305 C10.72665008 -0.03001101 12.34563314 -0.03434589 13.96461487 -0.03910828 C17.35648913 -0.04656634 20.7482593 -0.04628221 24.14013672 -0.04101562 C28.4824601 -0.03522125 32.82435691 -0.05215297 37.16660976 -0.0753603 C40.50981631 -0.09010635 43.85292033 -0.09096817 47.19615364 -0.08785057 C48.79690458 -0.08836334 50.39766132 -0.09359273 51.99838066 -0.10366249 C54.23878416 -0.11602694 56.47835934 -0.10923594 58.71875 -0.09765625 C59.99241928 -0.09828568 61.26608856 -0.0989151 62.57835388 -0.0995636 C67.03417709 0.39882449 69.60421448 1.95480041 72.73657227 5.0871582 C74.34514289 8.05031461 74.33212202 9.9422519 73.92407227 13.2746582 C72.25644905 16.7687259 71.18401205 18.10136501 67.92407227 20.2746582 C65.19677734 20.50170898 65.19677734 20.50170898 61.94360352 20.4699707 C60.19853516 20.46030273 60.19853516 20.46030273 58.41821289 20.45043945 C57.20327148 20.43368164 55.98833008 20.41692383 54.73657227 20.3996582 C53.5100293 20.39063477 52.28348633 20.38161133 51.01977539 20.37231445 C47.98767931 20.34871837 44.95597289 20.31579661 41.92407227 20.2746582 C41.94072685 21.3070311 41.94072685 21.3070311 41.9577179 22.36026001 C42.06842522 29.5303244 42.1437876 36.70014559 42.19873047 43.87084961 C42.22103404 46.54646747 42.25795827 49.22074813 42.30126953 51.89624023 C42.36199207 55.74390586 42.39030066 59.59066298 42.41235352 63.4387207 C42.43815994 64.63268463 42.46396637 65.82664856 42.49055481 67.05679321 C42.49367956 76.32964405 42.49367956 76.32964405 39.58105469 80.0144043 C36.34162115 82.77014037 33.81837983 83.47306354 29.67407227 83.7121582 C28.94704102 83.77274414 28.22000977 83.83333008 27.47094727 83.89575195 C23.2586073 82.86850954 20.45939031 80.79769188 17.92407227 77.2746582 C16.94954285 72.98925481 17.10807415 68.81432054 17.24047852 64.4387207 C17.25038315 63.20423187 17.26028778 61.96974304 17.27049255 60.69784546 C17.30960512 56.76389628 17.39743476 52.83276074 17.48657227 48.8996582 C17.52563784 46.22912608 17.55362704 43.5586204 17.58227539 40.88793945 C17.65935784 34.34922281 17.77642143 27.81214152 17.92407227 21.2746582 C17.19293213 21.29560547 16.46179199 21.31655273 15.70849609 21.33813477 C12.38466226 21.42146134 9.06104843 21.47337152 5.73657227 21.5246582 C4.01083984 21.57493164 4.01083984 21.57493164 2.25024414 21.6262207 C1.13842773 21.63911133 0.02661133 21.65200195 -1.11889648 21.6652832 C-2.14007568 21.68623047 -3.16125488 21.70717773 -4.21337891 21.72875977 C-7.82228328 21.1562598 -9.45232942 19.75940959 -12.07592773 17.2746582 C-14.36175408 14.009192 -14.47650799 11.20034469 -14.07592773 7.2746582 C-10.98743933 0.47998371 -7.08241026 0.02563604 0 0 Z " fill="#4259A0" transform="translate(48.075927734375,254.725341796875)"/>
<path d="M0 0 C1.38638672 -0.05994141 1.38638672 -0.05994141 2.80078125 -0.12109375 C6.80096216 0.6529602 9.10198298 2.41180612 11.6875 5.4375 C13.95375696 8.93935415 15.84940032 12.60225539 17.75 16.3125 C18.87931297 18.46209339 20.0108885 20.61049938 21.14453125 22.7578125 C22.01198975 24.40765137 22.01198975 24.40765137 22.89697266 26.09082031 C26.33410226 32.5151689 29.98813832 38.8186132 33.63696289 45.12451172 C34.15379639 46.0270166 34.67062988 46.92952148 35.203125 47.859375 C35.88810059 49.04418457 35.88810059 49.04418457 36.58691406 50.25292969 C37.63099131 52.32533502 38.23154961 54.17066448 38.6875 56.4375 C37.80707031 56.53546875 36.92664063 56.6334375 36.01953125 56.734375 C34.85808594 56.88390625 33.69664062 57.0334375 32.5 57.1875 C31.35144531 57.32671875 30.20289063 57.4659375 29.01953125 57.609375 C23.68481095 58.93523749 20.71634738 61.97393544 17.6875 66.4375 C17.275 65.78265625 16.8625 65.1278125 16.4375 64.453125 C15.2172242 62.52465343 13.99012106 60.60049234 12.7578125 58.6796875 C11.35865217 56.48854963 9.97885311 54.28494601 8.6171875 52.0703125 C7.93914062 50.99523437 7.26109375 49.92015625 6.5625 48.8125 C5.94117188 47.80960937 5.31984375 46.80671875 4.6796875 45.7734375 C2.86690091 43.22316309 2.86690091 43.22316309 -0.0546875 42.6015625 C-0.79976562 42.54742187 -1.54484375 42.49328125 -2.3125 42.4375 C-2.57514648 43.14994873 -2.83779297 43.86239746 -3.10839844 44.59643555 C-4.36854987 47.56974905 -5.86812011 50.15628968 -7.578125 52.89453125 C-8.22136719 53.92513672 -8.86460937 54.95574219 -9.52734375 56.01757812 C-10.19894531 57.08427734 -10.87054688 58.15097656 -11.5625 59.25 C-12.21863281 60.30509766 -12.87476562 61.36019531 -13.55078125 62.44726562 C-23.90631769 78.96877256 -23.90631769 78.96877256 -28.3125 80.4375 C-33.24578449 80.94755145 -37.070688 81.19779306 -41.375 78.5625 C-44.26959356 75.38778448 -44.74994763 73.0802795 -44.67919922 68.76171875 C-43.94814322 64.12812811 -41.28913603 60.38343397 -38.875 56.4375 C-37.68300474 54.41670736 -36.49577851 52.39309656 -35.3125 50.3671875 C-34.34957031 48.72121582 -34.34957031 48.72121582 -33.3671875 47.04199219 C-29.10972764 39.65202358 -25.23088198 32.04301651 -21.29031372 24.48095703 C-8.63073801 0.20293575 -8.63073801 0.20293575 0 0 Z " fill="#3D5098" transform="translate(139.3125,257.5625)"/>
<path d="M0 0 C0.66 0.33 1.32 0.66 2 1 C1.32453125 1.61746094 0.6490625 2.23492188 -0.046875 2.87109375 C-8.51430915 10.91026172 -12.81290737 17.95884764 -13.25 29.6875 C-13.11201058 38.98798719 -10.01703912 46.90751724 -4 54 C4.86453769 62.39699878 14.03605037 64.59078477 25.98828125 64.5390625 C27.20903854 64.55085541 28.42979584 64.56264832 29.68754578 64.57479858 C33.56266216 64.60992531 37.43723766 64.61921854 41.3125 64.625 C45.2054532 64.64134382 49.09816635 64.66334897 52.99101257 64.69662476 C55.40713805 64.71625512 57.8233739 64.72558962 60.23957825 64.72354126 C61.33138901 64.73050018 62.42319977 64.73745911 63.5480957 64.74462891 C64.98630424 64.74651718 64.98630424 64.74651718 66.4535675 64.7484436 C69.09348224 65.0092349 70.7350697 65.65675914 73 67 C72.1875 69.4375 72.1875 69.4375 71 72 C67.77848756 73.07383748 65.40774222 73.14626706 62.01904297 73.17700195 C60.17099564 73.19625481 60.17099564 73.19625481 58.28561401 73.21589661 C56.93780929 73.2240673 55.58999998 73.2315104 54.2421875 73.23828125 C53.56112064 73.24235678 52.88005379 73.2464323 52.17834854 73.25063133 C48.56942297 73.27148168 44.96053524 73.28578459 41.3515625 73.29516602 C37.64286388 73.30619387 33.93477132 73.3405536 30.22628593 73.38033772 C27.35902882 73.40662531 24.49191304 73.41486878 21.62454605 73.41844749 C20.25872863 73.42328675 18.89291637 73.43482398 17.52721786 73.45348549 C5.33464034 73.60965777 -2.81943393 71.03047318 -12 63 C-20.02166108 54.79178866 -23.39188456 45.27842304 -23.28515625 33.98046875 C-21.82407434 18.70916058 -10.93021722 9.34036744 0 0 Z " fill="#316268" transform="translate(36,14)"/>
<path d="M0 0 C1.08096954 0.00007553 2.16193909 0.00015106 3.27566528 0.00022888 C5.03195755 0.00797081 5.03195755 0.00797081 6.82373047 0.01586914 C8.019487 0.01728409 9.21524353 0.01869904 10.44723511 0.02015686 C14.27848784 0.02576876 18.10968281 0.03832331 21.94091797 0.05102539 C24.53336504 0.05603886 27.12581303 0.06060203 29.71826172 0.06469727 C36.08416695 0.07574206 42.45003833 0.0924918 48.81591797 0.11352539 C47.8778914 1.20964885 46.93960799 2.30555252 46.0012207 3.40136719 C45.47874252 4.01167282 44.95626434 4.62197845 44.41795349 5.2507782 C42.90421421 7.01086002 41.38032471 8.76144929 39.85107422 10.50805664 C34.54315574 16.59859226 29.48663104 22.66295718 25.02294922 29.41821289 C24.62462891 29.97766602 24.22630859 30.53711914 23.81591797 31.11352539 C23.48591797 31.11352539 23.15591797 31.11352539 22.81591797 31.11352539 C22.81591797 27.15352539 22.81591797 23.19352539 22.81591797 19.11352539 C19.85365234 19.20053711 19.85365234 19.20053711 16.83154297 19.28930664 C14.24302489 19.33620008 11.65448131 19.38170068 9.06591797 19.42602539 C7.76396484 19.46791992 6.46201172 19.50981445 5.12060547 19.55297852 C3.87021484 19.5690918 2.61982422 19.58520508 1.33154297 19.60180664 C0.17944336 19.62799072 -0.97265625 19.6541748 -2.15966797 19.68115234 C-5.18408203 19.11352539 -5.18408203 19.11352539 -7.52880859 16.70800781 C-10.00555667 12.82594265 -10.54857168 10.76076837 -10.18408203 6.11352539 C-7.54933104 0.724262 -5.81807166 -0.0135304 0 0 Z " fill="#262667" transform="translate(44.18408203125,255.886474609375)"/>
<path d="M0 0 C0.79622772 0.00141495 1.59245544 0.0028299 2.41281128 0.00428772 C4.9601413 0.0098928 7.50738397 0.02244611 10.0546875 0.03515625 C11.77994665 0.0401706 13.50520717 0.04473362 15.23046875 0.04882812 C19.46357541 0.05986388 23.69661664 0.07713189 27.9296875 0.09765625 C27.0546875 1.26432292 26.1796875 2.43098958 25.3046875 3.59765625 C24.75474121 4.33242188 24.20479492 5.0671875 23.63818359 5.82421875 C22.5741123 7.24014214 21.50499817 8.65230742 20.42822266 10.05859375 C17.69864091 13.63837309 15.11559824 17.27401077 12.640625 21.03515625 C12.09148437 21.86660156 11.54234375 22.69804687 10.9765625 23.5546875 C9.84526143 25.27542814 8.72309652 27.00220444 7.609375 28.734375 C6.78953125 29.96607422 6.78953125 29.96607422 5.953125 31.22265625 C5.22488525 32.34027344 5.22488525 32.34027344 4.48193359 33.48046875 C3.96969238 34.01414062 3.45745117 34.5478125 2.9296875 35.09765625 C1.6096875 35.09765625 0.2896875 35.09765625 -1.0703125 35.09765625 C-3.25814833 31.40143115 -5.41668263 27.68889906 -7.5703125 23.97265625 C-8.19035156 22.9259375 -8.81039062 21.87921875 -9.44921875 20.80078125 C-10.03574219 19.78242188 -10.62226563 18.7640625 -11.2265625 17.71484375 C-11.77119141 16.78269043 -12.31582031 15.85053711 -12.87695312 14.89013672 C-14.24362754 11.69209622 -14.42998433 9.54252634 -14.0703125 6.09765625 C-9.98968398 -0.02328653 -6.9567707 -0.04620298 0 0 Z " fill="#272768" transform="translate(185.0703125,255.90234375)"/>
<path d="M0 0 C3.1875 2 3.1875 2 5 4 C4.47905567 8.08383144 2.43645218 9.81184186 -0.5 12.5625 C-4.94904786 16.87251512 -8.85643824 21.3801542 -12.71875 26.21484375 C-15.05706682 29.06967233 -17.49914718 31.78688343 -20 34.5 C-24.10886324 38.96449901 -27.96292111 43.57788973 -31.76953125 48.30078125 C-34.02204657 51.02667983 -36.36272598 53.64175516 -38.75 56.25 C-42.16629301 59.99535801 -45.16831575 63.79814596 -48 68 C-49 65 -49 65 -47.3671875 61.359375 C-46.54756746 59.81696191 -45.71583867 58.28094921 -44.875 56.75 C-44.42705078 55.91662109 -43.97910156 55.08324219 -43.51757812 54.22460938 C-39.40304102 46.61860968 -35.13104493 39.09949925 -30.83740234 31.59350586 C-28.17564337 26.92420242 -25.57617702 22.24075242 -23.125 17.45703125 C-22.67962891 16.58820313 -22.23425781 15.719375 -21.77539062 14.82421875 C-20.95098339 13.20065412 -20.13645711 11.57201733 -19.33398438 9.9375 C-14.85684391 1.1086731 -9.90276062 -1.54405863 0 0 Z " fill="#2A2A6A" transform="translate(145,258)"/>
<path d="M0 0 C3.2431302 4.2226709 5.96067994 8.68301621 8.6875 13.25 C9.19861328 14.07113281 9.70972656 14.89226562 10.23632812 15.73828125 C13.43092247 21.12089548 14.84344968 24.72555728 14 31 C11.82425584 33.69105198 10.08934144 35.45532928 7 37 C5.27393547 37.09061856 3.54435493 37.11754501 1.81591797 37.11352539 C0.73494843 37.11344986 -0.34602112 37.11337433 -1.45974731 37.11329651 C-3.21603958 37.10555458 -3.21603958 37.10555458 -5.0078125 37.09765625 C-6.20356903 37.0962413 -7.39932556 37.09482635 -8.63131714 37.09336853 C-12.46256987 37.08775663 -16.29376484 37.07520208 -20.125 37.0625 C-22.71744707 37.05748653 -25.30989506 37.05292336 -27.90234375 37.04882812 C-34.26824898 37.03778333 -40.63412037 37.02103359 -47 37 C-47 36.67 -47 36.34 -47 36 C-46.33057373 36.05349609 -45.66114746 36.10699219 -44.97143555 36.16210938 C-32.48597184 37.32882495 -32.48597184 37.32882495 -20.9609375 33.64013672 C-17.54535344 30.03582926 -15.38855423 25.72333999 -13.20947266 21.29882812 C-11.13096704 17.34824094 -8.47555529 13.80637271 -5.875 10.1875 C-2.41907235 5.37575727 -2.41907235 5.37575727 0 0 Z " fill="#4572B7" transform="translate(216,302)"/>
<path d="M0 0 C7.010834 -0.07618093 14.02156089 -0.12865495 21.03271484 -0.16479492 C23.41687001 -0.179864 25.80099753 -0.20032291 28.18505859 -0.22631836 C31.61562937 -0.26278337 35.045833 -0.27974552 38.4765625 -0.29296875 C40.07064438 -0.31619453 40.07064438 -0.31619453 41.69692993 -0.33988953 C47.22327886 -0.34114103 51.25139084 -0.17264943 56 3 C58.46057182 5.46057182 58.37747115 6.40721905 58.5 9.8125 C58.5515625 10.66457031 58.603125 11.51664062 58.65625 12.39453125 C57.70269478 16.1803725 55.23123513 18.04864327 52 20 C48.47314453 20.65942383 48.47314453 20.65942383 44.6328125 20.70703125 C43.61343094 20.72971321 43.61343094 20.72971321 42.57345581 20.75285339 C40.42362717 20.79550713 38.27520839 20.80454519 36.125 20.8125 C34.65881727 20.83566219 33.19266764 20.86103112 31.7265625 20.88867188 C28.1510679 20.9512989 24.57604108 20.98381164 21 21 C20.67 20.34 20.34 19.68 20 19 C23.83108441 13.02350832 27.97013965 7.02986035 33 2 C22.11 1.67 11.22 1.34 0 1 C0 0.67 0 0.34 0 0 Z " fill="#3F539A" transform="translate(179,255)"/>
<path d="M0 0 C12.03149174 -0.09302904 24.0628967 -0.1639313 36.09467602 -0.20724869 C41.68263214 -0.2280478 47.27034064 -0.25622421 52.8581543 -0.30175781 C58.25928973 -0.34549053 63.66018825 -0.36919471 69.0614872 -0.37950897 C71.11339352 -0.38685138 73.16528814 -0.40118825 75.21709251 -0.42292023 C89.67551656 -0.56984999 103.89211357 -0.70487921 115 10 C117.10938713 12.25454926 119.0996958 14.56703477 121 17 C118.82554561 19.5926187 117.40139865 20.87514476 114.13671875 21.890625 C111 22 111 22 108.68359375 20.26953125 C107.94238281 19.45871094 107.20117188 18.64789062 106.4375 17.8125 C94.8793579 6.65351296 78.03458028 7.80246537 63 8 C64 6 64 6 66.28515625 5.1484375 C67.20167969 4.89320312 68.11820312 4.63796875 69.0625 4.375 C69.98160156 4.11460938 70.90070313 3.85421875 71.84765625 3.5859375 C72.55792969 3.39257812 73.26820313 3.19921875 74 3 C74 2.34 74 1.68 74 1 C49.58 1 25.16 1 0 1 C0 0.67 0 0.34 0 0 Z " fill="#4B67AB" transform="translate(127,7)"/>
<path d="M0 0 C0 3.18470342 -0.46025618 6.05023907 -1 9.1875 C-1.185625 10.27417969 -1.37125 11.36085938 -1.5625 12.48046875 C-1.7790625 13.72763672 -1.7790625 13.72763672 -2 15 C3.95932853 14.90592345 9.91827651 14.79971284 15.87719727 14.68261719 C17.90122678 14.64451021 19.9253198 14.60962662 21.94946289 14.578125 C24.87148627 14.53207489 27.79307924 14.47414916 30.71484375 14.4140625 C32.05602516 14.39673569 32.05602516 14.39673569 33.42430115 14.37905884 C39.20213754 14.24559901 44.39348462 13.41591217 50 12 C45.18331947 17.59356448 39.1939965 20.4575985 32 22 C30.56538424 22.08312165 29.12744495 22.11785375 27.69042969 22.11352539 C26.84986023 22.11344986 26.00929077 22.11337433 25.14324951 22.11329651 C23.79616913 22.10555458 23.79616913 22.10555458 22.421875 22.09765625 C21.4953009 22.0962413 20.56872681 22.09482635 19.61407471 22.09336853 C16.65935008 22.08777824 13.70470167 22.0752275 10.75 22.0625 C8.74479276 22.05748375 6.73958433 22.05292106 4.734375 22.04882812 C-0.17711263 22.03781199 -5.0885434 22.020554 -10 22 C-10.04425109 20.4247369 -10.07556323 18.84910753 -10.1015625 17.2734375 C-10.12041504 16.39606934 -10.13926758 15.51870117 -10.15869141 14.61474609 C-9.9080193 10.48444112 -8.49065312 7.27558622 -6 4 C-4.06490539 2.329211 -2.26358667 1.23468364 0 0 Z " fill="#7A7A7E" transform="translate(183,65)"/>
<path d="M0 0 C0.33 0 0.66 0 1 0 C1.33 7.92 1.66 15.84 2 24 C5.23920272 14.15808099 5.23920272 14.15808099 7 4 C7.33 4 7.66 4 8 4 C8.74561071 9.31397954 9.12261041 14.41463723 9.11352539 19.79296875 C9.11367142 20.52565475 9.11381744 21.25834076 9.1139679 22.01322937 C9.11327823 24.40468437 9.10553076 26.79605882 9.09765625 29.1875 C9.0957887 30.8575842 9.09436639 32.52766896 9.09336853 34.19775391 C9.08956988 38.57067404 9.07976254 42.9435604 9.06866455 47.31646729 C9.05839311 51.78779646 9.05385868 56.25913115 9.04882812 60.73046875 C9.03813764 69.48699458 9.02109345 78.24349308 9 87 C8.67 87 8.34 87 8 87 C7.67 76.77 7.34 66.54 7 56 C5.68 58.97 4.36 61.94 3 65 C2.01 65.99 2.01 65.99 1 67 C0.10791994 63.18338418 -0.1215001 59.65654759 -0.11352539 55.7409668 C-0.11344986 54.50005783 -0.11337433 53.25914886 -0.11329651 51.9806366 C-0.10819072 50.63683023 -0.10297474 49.29302429 -0.09765625 47.94921875 C-0.09578965 46.56631013 -0.09436689 45.18340085 -0.09336853 43.80049133 C-0.08956237 40.17225294 -0.07974843 36.544055 -0.06866455 32.91583252 C-0.05840945 29.20886787 -0.05386215 25.50189664 -0.04882812 21.79492188 C-0.03812435 14.52992954 -0.0210709 7.26497045 0 0 Z " fill="#668AA2" transform="translate(87,106)"/>
<path d="M0 0 C2.77770708 3.48746819 4.98481471 7.26133864 7.1875 11.125 C7.73954102 12.07439453 7.73954102 12.07439453 8.30273438 13.04296875 C11 17.75692834 11 17.75692834 11 20 C10.11957031 20.09796875 9.23914063 20.1959375 8.33203125 20.296875 C7.17058594 20.44640625 6.00914062 20.5959375 4.8125 20.75 C3.66394531 20.88921875 2.51539063 21.0284375 1.33203125 21.171875 C-4.25811936 22.56122076 -6.59826566 25.46435422 -10 30 C-11.98 27.03 -13.96 24.06 -16 21 C-11.94064978 15.37936123 -7.59730844 10.25876964 -2.85546875 5.19921875 C-0.81178758 3.05212605 -0.81178758 3.05212605 0 0 Z " fill="#4471B7" transform="translate(167,294)"/>
<path d="M0 0 C0.99245476 0.00212242 0.99245476 0.00212242 2.00495911 0.00428772 C4.11402953 0.00987629 6.22299302 0.0224266 8.33203125 0.03515625 C9.76367034 0.04017273 11.1953111 0.04473538 12.62695312 0.04882812 C16.13284713 0.05984195 19.63867875 0.0770987 23.14453125 0.09765625 C22.15453125 2.73765625 21.16453125 5.37765625 20.14453125 8.09765625 C8.26453125 8.09765625 -3.61546875 8.09765625 -15.85546875 8.09765625 C-12.20140258 0.78952391 -7.80765788 -0.0329437 0 0 Z " fill="#35656A" transform="translate(61.85546875,28.90234375)"/>
<path d="M0 0 C0.33 0 0.66 0 1 0 C1.124032 5.01699904 1.21454017 10.03309682 1.2746582 15.05126953 C1.29973045 16.75650589 1.33379764 18.46163554 1.37719727 20.16650391 C1.43817566 22.62429174 1.46628112 25.08065361 1.48828125 27.5390625 C1.51408768 28.29555084 1.5398941 29.05203918 1.56648254 29.83145142 C1.56857614 33.82452066 1.17737985 36.28720651 -1.34301758 39.46630859 C-4.69045648 42.65841747 -7.03238323 43.16064766 -11.5 43.25 C-12.2734375 43.27578125 -13.046875 43.3015625 -13.84375 43.328125 C-16.48830838 42.9256922 -17.33240802 42.03104151 -19 40 C-18.2575 39.43925781 -17.515 38.87851562 -16.75 38.30078125 C-14.10399193 36.08700461 -12.11802554 33.89908512 -10 31.1875 C-9.360625 30.37667969 -8.72125 29.56585938 -8.0625 28.73046875 C-7.381875 27.82941406 -6.70125 26.92835938 -6 26 C-5.55954346 25.493479 -5.11908691 24.98695801 -4.6652832 24.46508789 C-0.62922846 19.53068781 -0.23028966 15.31454496 -0.1875 9.0625 C-0.16236328 8.18787109 -0.13722656 7.31324219 -0.11132812 6.41210938 C-0.05294303 4.27521492 -0.0234897 2.13756286 0 0 Z " fill="#4773B8" transform="translate(89,295)"/>
<path d="M0 0 C5.28 0 10.56 0 16 0 C16 0.33 16 0.66 16 1 C14.35 1 12.7 1 11 1 C10.855625 1.94875 10.71125 2.8975 10.5625 3.875 C10 7 10 7 9 9 C-14.76 8.67 -38.52 8.34 -63 8 C-63 7.67 -63 7.34 -63 7 C-42.87 6.67 -22.74 6.34 -2 6 C-1.34 4.02 -0.68 2.04 0 0 Z " fill="#D0D9DA" transform="translate(109,80)"/>
<path d="M0 0 C0.33 0 0.66 0 1 0 C1.70143885 24.71223022 1.70143885 24.71223022 -4.1875 33.125 C-5.0846875 34.053125 -5.0846875 34.053125 -6 35 C-7.23402862 30.22907044 -7.11265112 25.57530554 -7.0625 20.6875 C-7.05798828 19.85154297 -7.05347656 19.01558594 -7.04882812 18.15429688 C-7.03710548 16.10283351 -7.01917203 14.05140727 -7 12 C-6.67 13.32 -6.34 14.64 -6 16 C-5.34 16 -4.68 16 -4 16 C-3.87882812 15.34773437 -3.75765625 14.69546875 -3.6328125 14.0234375 C-2.71056011 9.21353658 -1.69832723 4.60974535 0 0 Z " fill="#A1B9B8" transform="translate(94,138)"/>
<path d="M0 0 C0.41806266 12.21671986 -2.26069032 22.41903118 -6 34 C-6.33 34 -6.66 34 -7 34 C-7.14886815 29.96185605 -7.25745089 25.92478395 -7.32958984 21.88452148 C-7.3596733 20.5118425 -7.40055334 19.13935437 -7.45263672 17.76733398 C-7.87517931 6.34625632 -7.87517931 6.34625632 -5.67285156 2.95849609 C-2.18109568 0 -2.18109568 0 0 0 Z " fill="#497777" transform="translate(95,99)"/>
<path d="M0 0 C1.98 0 3.96 0 6 0 C4.125 4.75 4.125 4.75 3 7 C2.01 7.33 1.02 7.66 0 8 C-0.33 40.34 -0.66 72.68 -1 106 C-1.33 106 -1.66 106 -2 106 C-2.04634677 93.06525886 -2.08188118 80.13053749 -2.10362434 67.19573021 C-2.11406012 61.18953899 -2.1282157 55.18340461 -2.15087891 49.17724609 C-2.17261442 43.38064643 -2.18457018 37.58410142 -2.18975449 31.78746414 C-2.19344895 29.57629155 -2.20066327 27.36512194 -2.21146011 25.15397263 C-2.22598428 22.05619601 -2.22797753 18.95864505 -2.22705078 15.86083984 C-2.23424133 14.94733765 -2.24143188 14.03383545 -2.24884033 13.09265137 C-2.23340198 8.32152128 -1.85416459 4.48338985 0 0 Z " fill="#DADFEA" transform="translate(120,81)"/>
<path d="M0 0 C-2 2 -2 2 -5.99072266 2.13525391 C-7.71545949 2.09286195 -9.43994148 2.03917982 -11.1640625 1.9765625 C-12.52487442 1.93902359 -12.52487442 1.93902359 -13.91317749 1.90072632 C-16.81749134 1.81839936 -19.72113795 1.72185934 -22.625 1.625 C-24.59111837 1.56677339 -26.55726431 1.50946985 -28.5234375 1.453125 C-33.34934373 1.31280169 -38.17469862 1.15972802 -43 1 C-43.2165625 2.175625 -43.2165625 2.175625 -43.4375 3.375 C-44 6 -44 6 -45 8 C-49.29 8 -53.58 8 -58 8 C-54.95367908 2.92279847 -54.22187715 1.99254791 -49 0 C-45.97412109 -0.44824219 -45.97412109 -0.44824219 -42.7734375 -0.546875 C-41.58516357 -0.58756104 -40.39688965 -0.62824707 -39.17260742 -0.67016602 C-37.29279175 -0.70968384 -37.29279175 -0.70968384 -35.375 -0.75 C-34.09149658 -0.78601318 -32.80799316 -0.82202637 -31.4855957 -0.85913086 C-20.94940616 -1.10180322 -10.50547392 -0.79494273 0 0 Z " fill="#849CBB" transform="translate(177,29)"/>
<path d="M0 0 C1.23556641 0.01740234 1.23556641 0.01740234 2.49609375 0.03515625 C3.32238281 0.04417969 4.14867188 0.05320312 5 0.0625 C5.63808594 0.07410156 6.27617188 0.08570312 6.93359375 0.09765625 C6.12109375 3.03515625 6.12109375 3.03515625 4.93359375 6.09765625 C1.65471626 7.19061541 -0.73908198 7.21807007 -4.19018555 7.21118164 C-5.45126633 7.21110611 -6.71234711 7.21103058 -8.01164246 7.21095276 C-9.38797037 7.20584614 -10.76429788 7.20063014 -12.140625 7.1953125 C-13.54881236 7.19344711 -14.95700036 7.19202378 -16.3651886 7.19102478 C-20.06907955 7.18720913 -23.7729312 7.17738697 -27.47680664 7.1663208 C-31.25731881 7.15608622 -35.03783734 7.15152277 -38.81835938 7.14648438 C-46.2343929 7.13576385 -53.65039407 7.11869885 -61.06640625 7.09765625 C-61.06640625 6.76765625 -61.06640625 6.43765625 -61.06640625 6.09765625 C-41.92640625 6.09765625 -22.78640625 6.09765625 -3.06640625 6.09765625 C-3.06640625 4.44765625 -3.06640625 2.79765625 -3.06640625 1.09765625 C-2.06640625 0.09765625 -2.06640625 0.09765625 0 0 Z " fill="#4A7879" transform="translate(102.06640625,79.90234375)"/>
<path d="M0 0 C0.33 0 0.66 0 1 0 C1.8722855 10.23481648 -0.62476112 18.50111344 -4 28 C-4.66 28 -5.32 28 -6 28 C-7.13480527 24.39006828 -7.10015767 21.0157673 -7.0625 17.25 C-7.05347656 16.07953125 -7.04445313 14.9090625 -7.03515625 13.703125 C-7.02355469 12.81109375 -7.01195313 11.9190625 -7 11 C-6.67 11 -6.34 11 -6 11 C-5.67 13.64 -5.34 16.28 -5 19 C-4.34922704 16.95990245 -3.70460176 14.91784331 -3.0625 12.875 C-2.70285156 11.73804688 -2.34320313 10.60109375 -1.97265625 9.4296875 C-1.08101661 6.28567301 -0.46648986 3.23105607 0 0 Z " fill="#84A4A4" transform="translate(94,126)"/>
<path d="M0 0 C0.33 0 0.66 0 1 0 C1.28069201 5.89453221 0.86194516 10.33033299 -1.2109375 15.8515625 C-1.95911805 17.88868777 -2.49248715 19.89253139 -3 22 C-3.33 22.99 -3.66 23.98 -4 25 C-4.99 25.33 -5.98 25.66 -7 26 C-7 20.72 -7 15.44 -7 10 C-6.01 11.485 -6.01 11.485 -5 13 C-4.35004703 11.58521865 -3.70521278 10.16808513 -3.0625 8.75 C-2.70285156 7.96109375 -2.34320313 7.1721875 -1.97265625 6.359375 C-1.09966721 4.24176302 -0.48661492 2.23330638 0 0 Z " fill="#C6D5D5" transform="translate(94,158)"/>
<path d="M0 0 C5.28 0 10.56 0 16 0 C16 0.33 16 0.66 16 1 C13.36 1 10.72 1 8 1 C7.67 2.98 7.34 4.96 7 7 C3.04 7 -0.92 7 -5 7 C-4.01 6.67 -3.02 6.34 -2 6 C-1.34 4.02 -0.68 2.04 0 0 Z " fill="#90ADAE" transform="translate(109,80)"/>
<path d="M0 0 C0.33 0 0.66 0 1 0 C1.42949781 7.73096059 0.32419059 14.67972773 -4.1875 21.125 C-4.785625 21.74375 -5.38375 22.3625 -6 23 C-7.32286246 18.03926578 -7.08893197 13.08888488 -7 8 C-6.67 8 -6.34 8 -6 8 C-5.67 9.65 -5.34 11.3 -5 13 C-3.35 8.71 -1.7 4.42 0 0 Z " fill="#ACC0C1" transform="translate(94,150)"/>
<path d="M0 0 C-0.645477 7.90709331 -2.86997139 15.39133967 -5 23 C-5.33 23 -5.66 23 -6 23 C-6.13539281 20.10259378 -6.23426829 17.21154379 -6.3125 14.3125 C-6.35439453 13.49587891 -6.39628906 12.67925781 -6.43945312 11.83789062 C-6.53111056 7.31001327 -6.46840292 5.58755151 -3.54296875 1.91796875 C-1 0 -1 0 0 0 Z " fill="#366A6A" transform="translate(94,101)"/>
<path d="M0 0 C0.33 0 0.66 0 1 0 C0.70293569 9.07531475 -0.48307602 17.55938244 -4 26 C-4.66 26.33 -5.32 26.66 -6 27 C-6.36722391 20.38996962 -5.12572063 15.23353211 -3 9 C-2.71382813 8.12988281 -2.42765625 7.25976562 -2.1328125 6.36328125 C-1.43232208 4.23846032 -0.72129034 2.11783122 0 0 Z " fill="#6F9494" transform="translate(94,119)"/>
<path d="M0 0 C0.33 0 0.66 0 1 0 C1.39428144 7.22849313 0.35287726 13.42711232 -3.6875 19.5625 C-4.120625 20.036875 -4.55375 20.51125 -5 21 C-4.35867293 16.87454031 -3.52574671 12.85907076 -2.5 8.8125 C-2.2421875 7.78769531 -1.984375 6.76289063 -1.71875 5.70703125 C-1.20891052 3.7868206 -0.6282631 1.88478931 0 0 Z " fill="#DEE5E5" transform="translate(94,167)"/>
<path d="M0 0 C1.98 0 3.96 0 6 0 C4.125 4.75 4.125 4.75 3 7 C0.4375 7.625 0.4375 7.625 -2 8 C-1.34 5.36 -0.68 2.72 0 0 Z " fill="#E4EAEA" transform="translate(120,81)"/>
<path d="M0 0 C1.32 0 2.64 0 4 0 C3.125 4.75 3.125 4.75 2 7 C-2.29 7 -6.58 7 -11 7 C-11 6.67 -11 6.34 -11 6 C-7.7 6 -4.4 6 -1 6 C-0.67 4.02 -0.34 2.04 0 0 Z " fill="#B2C5C6" transform="translate(130,30)"/>
<path d="M0 0 C1.65 0 3.3 0 5 0 C4.67 1.98 4.34 3.96 4 6 C2.02 6.33 0.04 6.66 -2 7 C-1.34 4.69 -0.68 2.38 0 0 Z " fill="#D6E0DF" transform="translate(134,30)"/>
<path d="M0 0 C0.33 0 0.66 0 1 0 C1.35621515 6.4118727 0.53060222 12.04495899 -2 18 C-2.66 18.33 -3.32 18.66 -4 19 C-3.71512349 16.95737483 -3.42177949 14.91592973 -3.125 12.875 C-2.96257812 11.73804688 -2.80015625 10.60109375 -2.6328125 9.4296875 C-2.02568583 6.13921085 -1.13654367 3.14220897 0 0 Z " fill="#B6C8C8" transform="translate(94,150)"/>
<path d="M0 0 C1.65 0 3.3 0 5 0 C4.34 1.98 3.68 3.96 3 6 C0.69 6.33 -1.62 6.66 -4 7 C-3.34 6.67 -2.68 6.34 -2 6 C-1.27306096 4.02111039 -0.60183749 2.02045442 0 0 Z " fill="#638A8C" transform="translate(104,80)"/>
<path d="M0 0 C1.31225809 3.93677426 0.3393954 5.7794262 -0.9375 9.6875 C-1.50791016 11.45673828 -1.50791016 11.45673828 -2.08984375 13.26171875 C-2.39019531 14.16535156 -2.69054687 15.06898438 -3 16 C-3.33 16 -3.66 16 -4 16 C-4.54330269 9.34454208 -3.77304004 5.54165256 0 0 Z " fill="#527E7F" transform="translate(92,117)"/>
<path d="M0 0 C3.3 0 6.6 0 10 0 C10 0.33 10 0.66 10 1 C7.36 1 4.72 1 2 1 C1.67 2.98 1.34 4.96 1 7 C-0.32 6.67 -1.64 6.34 -3 6 C-2.01 4.02 -1.02 2.04 0 0 Z " fill="#A5B9C2" transform="translate(115,80)"/>
<path d="M0 0 C0.66 0.33 1.32 0.66 2 1 C1.34 2.65 0.68 4.3 0 6 C-1.98 6 -3.96 6 -6 6 C-4.98545548 3.4636387 -4.3146444 2.20648539 -2 0.6875 C-1.34 0.460625 -0.68 0.23375 0 0 Z " fill="#7397A3" transform="translate(126,30)"/>
<path d="M0 0 C0.33 1.32 0.66 2.64 1 4 C0.01 4.495 0.01 4.495 -1 5 C-0.67 3.35 -0.34 1.7 0 0 Z M-4 1 C-3.67 2.32 -3.34 3.64 -3 5 C-2.34 5 -1.68 5 -1 5 C-1.33 7.64 -1.66 10.28 -2 13 C-4.60018816 9.09971775 -4.15085514 5.52565431 -4 1 Z " fill="#95B0B0" transform="translate(91,149)"/>
<path d="M0 0 C0.66 0.66 1.32 1.32 2 2 C0.35 3.32 -1.3 4.64 -3 6 C-3 3 -3 3 -1.5 1.3125 C-0.7575 0.6628125 -0.7575 0.6628125 0 0 Z M-8 4 C-5.525 4.99 -5.525 4.99 -3 6 C-3.66 6.66 -4.32 7.32 -5 8 C-5.99 6.68 -6.98 5.36 -8 4 Z " fill="#FCFCFC" transform="translate(173,61)"/>
<path d="M0 0 C0.66 0.66 1.32 1.32 2 2 C-0.97 4.475 -0.97 4.475 -4 7 C-4 4 -4 4 -2 1.8125 C-1.34 1.214375 -0.68 0.61625 0 0 Z M-6 6 C-5.34 6.66 -4.68 7.32 -4 8 C-4.99 8 -5.98 8 -7 8 C-6.67 7.34 -6.34 6.68 -6 6 Z " fill="#FCFCFC" transform="translate(20,16)"/>
<path d="M0 0 C0.99 0 1.98 0 3 0 C2.67 1.98 2.34 3.96 2 6 C1.01 6 0.02 6 -1 6 C-0.67 4.02 -0.34 2.04 0 0 Z " fill="#C3D2D2" transform="translate(117,81)"/>
<path d="M0 0 C0.33 0 0.66 0 1 0 C1.125 7.75 1.125 7.75 0 10 C-0.66 10 -1.32 10 -2 10 C-1.54177532 6.53058454 -1.10868317 3.32604951 0 0 Z " fill="#97B1B1" transform="translate(94,138)"/>
<path d="M0 0 C2.31 0 4.62 0 7 0 C6.13375 0.37125 6.13375 0.37125 5.25 0.75 C2.6997003 2.16683317 0.98214299 3.87627537 -1 6 C-0.67 4.02 -0.34 2.04 0 0 Z " fill="#F4F5F4" transform="translate(139,30)"/>
<path d="M0 0 C0.66 0 1.32 0 2 0 C1.34 1.98 0.68 3.96 0 6 C-1.65 6.33 -3.3 6.66 -5 7 C-4.01 6.67 -3.02 6.34 -2 6 C-0.77479736 2.99152582 -0.77479736 2.99152582 0 0 Z " fill="#7C9D9E" transform="translate(109,80)"/>
<path d="M0 0 C4.62 0 9.24 0 14 0 C14 0.33 14 0.66 14 1 C9.38 1 4.76 1 0 1 C0 0.67 0 0.34 0 0 Z " fill="#FFFFFF" transform="translate(194,45)"/>
<path d="M0 0 C2.64 0 5.28 0 8 0 C8 0.33 8 0.66 8 1 C5.36 1 2.72 1 0 1 C0 0.67 0 0.34 0 0 Z " fill="#FFFFFF" transform="translate(124,239)"/>
<path d="M0 0 C3 1 3 1 3 1 Z " fill="#FFFFFF" transform="translate(230,283)"/>
<path d="M0 0 C2 1 2 1 2 1 Z " fill="#FFFFFF" transform="translate(38,283)"/>
<path d="" fill="#FFFFFF" transform="translate(0,0)"/>
<path d="M0 0 C2 1 2 1 2 1 Z " fill="#FFFFFF" transform="translate(191,49)"/>
<path d="M0 0 C2 1 2 1 2 1 Z " fill="#FFFFFF" transform="translate(82,45)"/>
<path d="" fill="#FFFFFF" transform="translate(0,0)"/>
<path d="" fill="#FFFFFF" transform="translate(0,0)"/>
<path d="" fill="#FFFFFF" transform="translate(0,0)"/>
<path d="" fill="#FFFFFF" transform="translate(0,0)"/>
<path d="" fill="#FFFFFF" transform="translate(0,0)"/>
<path d="" fill="#FFFFFF" transform="translate(0,0)"/>
<path d="" fill="#FFFFFF" transform="translate(0,0)"/>
<path d="" fill="#FFFFFF" transform="translate(0,0)"/>
<path d="" fill="#FFFFFF" transform="translate(0,0)"/>
<path d="" fill="#FFFFFF" transform="translate(0,0)"/>
<path d="" fill="#FFFFFF" transform="translate(0,0)"/>
<path d="" fill="#FFFFFF" transform="translate(0,0)"/>
<path d="" fill="#FFFFFF" transform="translate(0,0)"/>
<path d="" fill="#FFFFFF" transform="translate(0,0)"/>
<path d="" fill="#FFFFFF" transform="translate(0,0)"/>
<path d="" fill="#FFFFFF" transform="translate(0,0)"/>
<path d="" fill="#FFFFFF" transform="translate(0,0)"/>
<path d="" fill="#FFFFFF" transform="translate(0,0)"/>
<path d="" fill="#FFFFFF" transform="translate(0,0)"/>
<path d="" fill="#FFFFFF" transform="translate(0,0)"/>
<path d="" fill="#FFFFFF" transform="translate(0,0)"/>
<path d="" fill="#FFFFFF" transform="translate(0,0)"/>
<path d="" fill="#FFFFFF" transform="translate(0,0)"/>
<path d="" fill="#FFFFFF" transform="translate(0,0)"/>
<path d="" fill="#FFFFFF" transform="translate(0,0)"/>
<path d="" fill="#FFFFFF" transform="translate(0,0)"/>
<path d="" fill="#FFFFFF" transform="translate(0,0)"/>
<path d="" fill="#FFFFFF" transform="translate(0,0)"/>
</svg>
